<svg xmlns="http://www.w3.org/2000/svg" xmlns:xlink="http://www.w3.org/1999/xlink" viewBox="0 0 539.04 479.16"><defs><style>.cls-1,.cls-2{fill:none;}.cls-1{clip-rule:evenodd;}.cls-3{fill:#fff;}.cls-4{fill:url(#未命名的渐变_124);}.cls-5{clip-path:url(#clip-path);}.cls-6{clip-path:url(#clip-path-2);}.cls-7{clip-path:url(#clip-path-3);}.cls-8{clip-path:url(#clip-path-4);}.cls-9{fill:url(#未命名的渐变_33);}.cls-10{fill:url(#未命名的渐变_127);}</style><linearGradient id="未命名的渐变_124" x1="384.01" y1="355.75" x2="532.51" y2="262.95" gradientUnits="userSpaceOnUse"><stop offset="0.15" stop-color="#009ee7"/><stop offset="0.47" stop-color="#00b4ed"/><stop offset="0.54" stop-color="#0eb7ee"/><stop offset="0.67" stop-color="#32c0f0"/><stop offset="0.84" stop-color="#6ccdf3"/><stop offset="0.97" stop-color="#9fd9f6"/></linearGradient><clipPath id="clip-path" transform="translate(-39.92 -95.73)"><path class="cls-1" d="M68.91,365.95c33.19,88.76,114.66,155.18,214.94,164C423.14,542.09,546,438.46,558.24,298.44a257,257,0,0,0-.47-49.92C521.42,380,396,471,255.91,458.76a285.36,285.36,0,0,1-187-92.81Z"/></clipPath><clipPath id="clip-path-2" transform="translate(-39.92 -95.73)"><rect class="cls-2" x="0.46" width="665.71" height="665.71"/></clipPath><clipPath id="clip-path-3" transform="translate(-39.92 -95.73)"><polygon class="cls-1" points="519.77 176.25 555.28 177.49 543.51 214.48 519.77 176.25"/></clipPath><clipPath id="clip-path-4" transform="translate(-39.92 -95.73)"><rect class="cls-2" width="665.71" height="665.71"/></clipPath><linearGradient id="未命名的渐变_33" x1="166.59" y1="412.36" x2="348.44" y2="298.73" gradientUnits="userSpaceOnUse"><stop offset="0.31" stop-color="#007eca"/><stop offset="1" stop-color="#00b5ee"/></linearGradient><linearGradient id="未命名的渐变_127" x1="195.78" y1="525.12" x2="552.61" y2="293.39" gradientUnits="userSpaceOnUse"><stop offset="0.09" stop-color="#00304c"/><stop offset="0.28" stop-color="#004c76"/><stop offset="0.61" stop-color="#0083c8"/><stop offset="1" stop-color="#009ad0"/></linearGradient></defs><title>资源 2</title><g id="图层_2" data-name="图层 2"><g id="图层_1-2" data-name="图层 1"><path class="cls-3" d="M573.16,319.07c0-1,0-1.94-.05-2.91A226.29,226.29,0,0,0,346.91,95.73c-125,0-226.27,101.3-226.27,226.27,0,66.28,25.82,124.1,71.23,165.48-34.16-7.62-66.38-23.48-94.79-45.09,47.48,84.67,135.65,132.5,223.21,132.5,154,0,249.72-110.08,252.82-247,0-1,0-1.94.05-2.91s0-1.95,0-2.93S573.18,320,573.16,319.07ZM450.93,205.43a12.83,12.83,0,1,1,12.83-12.83A12.83,12.83,0,0,1,450.93,205.43Z" transform="translate(-39.92 -95.73)"/><path class="cls-4" d="M529.13,257.54s-.59,121.24-140.55,105.52c0,0,.18-.47.54-1.47a331,331,0,0,1,26.62-56.1c20.35-33.92,45-63,91.05-57.49C524.21,252,529.13,257.54,529.13,257.54Z" transform="translate(-39.92 -95.73)"/><g class="cls-5"><g class="cls-6"><rect class="cls-3" x="142.22" y="123.55" width="334.44" height="511.84" transform="translate(-135.47 558.93) rotate(-85)"/></g></g><g class="cls-7"><g class="cls-8"><rect class="cls-3" x="503.06" y="162.66" width="67.64" height="65.78" transform="translate(282.79 629.54) rotate(-88)"/></g></g><path class="cls-9" d="M388.58,363c-.5,1.08-1.06,2.28-1.74,3.57-.34.67-.69,1.35-1.08,2.05l-1.22,2.17c-.44.74-.89,1.52-1.37,2.3a111.44,111.44,0,0,1-8.28,11.63c-.62.75-1.25,1.5-1.88,2.25h0c-1,1.18-2.08,2.38-3.19,3.57-15.9,17-45,36-86.35,39.21h0c-1.46.1-2.92.2-4.41.27l-2.25.1c-1,0-1.94.07-2.92.09h-6.43c-.84,0-1.69,0-2.54-.07-29-.81-61.62-9.81-104.54-28.07-.1,0-.17-.09-.27-.11h0C156,391.06,147,363.47,147,345c0-30.69,17.51-51.8,58.8-52.47,52.77,1.86,81.73,52.77,179.39,69.86C386.28,362.57,387.43,362.77,388.58,363Z" transform="translate(-39.92 -95.73)"/><path class="cls-10" d="M327,545.76c-77.92,1.62-141.34-42.86-160.83-66.24-.55-.67,20.56,8.23,34.8,9.93h0a243.51,243.51,0,0,1-48.35-39,267.33,267.33,0,0,0,51.17,14.85,194.66,194.66,0,0,1-15.26-17c-12.43-15.53-22.42-32.38-28.44-46.43.1,0,.17.09.27.11,42.92,18.26,75.5,27.26,104.54,28.07.85,0,1.7.07,2.54.07h6.43c1,0,2,0,2.92-.09L279,430c1.49-.07,2.95-.17,4.41-.27h0c41.32-3.16,70.45-22.25,86.35-39.21,1.11-1.19,2.17-2.39,3.19-3.57h0c.64-.75,1.26-1.5,1.88-2.25A111.44,111.44,0,0,0,383.16,373c.48-.78.94-1.56,1.37-2.3l1.22-2.17c.38-.71.74-1.39,1.08-2.05.68-1.29,1.25-2.49,1.74-3.57h0c140,15.73,140.36-106,140.36-106,4.1,12.71,11.62,30.72,11.64,67.56C546.44,413.3,474.17,542.73,327,545.76Z" transform="translate(-39.92 -95.73)"/></g></g></svg>