<?xml version="1.0" standalone="no"?>
<!DOCTYPE svg PUBLIC "-//W3C//DTD SVG 1.1//EN" "http://www.w3.org/Graphics/SVG/1.1/DTD/svg11.dtd" >
<!--
2013-9-30: Created.
-->
<svg>
<metadata>
Created by iconfont
</metadata>
<defs>

<font id="iconfont" horiz-adv-x="1024" >
  <font-face
    font-family="iconfont"
    font-weight="500"
    font-stretch="normal"
    units-per-em="1024"
    ascent="896"
    descent="-128"
  />
    <missing-glyph />
    
    <glyph glyph-name="huati" unicode="&#59042;" d="M828.928 553.6768h-105.8304l31.7952 137.9328a36.5568 36.5568 0 0 1-71.2704 16.384V708.096l-35.584-154.4192h-193.024l31.8464 137.984a36.5568 36.5568 0 0 1-71.2192 16.384L379.904 553.6768H268.4416a36.5568 36.5568 0 1 1 0-73.1136h94.6688l-45.056-194.9696H195.3792a36.5568 36.5568 0 0 1 0-73.1136h105.9328l-31.8464-137.984a36.5568 36.5568 0 0 1 71.2704-16.384v-0.0512l35.6352 154.4192h193.024l-31.8464-137.984a36.5568 36.5568 0 0 1 71.2704-16.384v-0.0512l35.6352 154.4192h111.5136a36.5568 36.5568 0 1 1 0 73.1136h-94.6688l45.0048 194.9696h122.7776a36.5568 36.5568 0 1 1 0 73.1136h-0.0512z m-242.7392-268.0832h-193.024l45.0048 194.9696h193.024l-45.0048-194.9696z"  horiz-adv-x="1024" />

    
    <glyph glyph-name="dianzan" unicode="&#59030;" d="M672 704c-60.288 0-118.016-22.848-160-63.36A230.4 230.4 0 0 1 352 704C228.48 704 128 609.28 128 492.992c0-48.896 18.176-96.512 52.992-136.128l285.952-274.944c11.776-11.52 28.032-17.92 45.056-17.92 17.152 0 33.152 6.4 45.12 17.92l287.744 276.864A203.904 203.904 0 0 1 896 492.992C896 609.344 795.52 704 672 704"  horiz-adv-x="1024" />

    
    <glyph glyph-name="pinglun" unicode="&#59031;" d="M805.312 704H218.688c-32.32 0-58.688-27.52-58.688-61.248v-471.36c0-33.792 26.432-61.312 58.816-61.312h189.312c5.952 0 15.68-5.696 18.368-10.752l38.08-71.936 2.88-4.544A56.32 56.32 0 0 1 512 0a56.32 56.32 0 0 1 44.544 22.848l40.96 76.544a26.368 26.368 0 0 0 18.368 10.688h189.44c32.384 0 58.688 27.52 58.688 61.248V642.752c0 33.728-26.368 61.248-58.688 61.248z"  horiz-adv-x="1024" />

    
    <glyph glyph-name="chakan" unicode="&#59032;" d="M376.192 344.064V415.936c0 70.656 57.28 128 128 128.064 70.528 0 128-57.408 128-128.064v-71.872c-0.064-70.656-57.344-128-128-128.064-70.656 0-128 57.472-128 128.064m494.848 80.96a464.512 464.512 0 0 1-78.848 116.928c-58.496 63.872-151.616 130.048-288 130.048-136.448 0-229.632-66.24-288-130.048-52.16-56.832-76.672-111.68-78.272-115.456-12.672-24.896-12.992-60.864-1.984-82.816 0.448-1.28 24.32-60.928 80.192-121.408 58.048-62.72 150.528-126.272 288-126.272 137.536 0 230.144 63.68 288 126.208 55.872 60.352 79.552 119.616 79.552 119.808 11.776 24.896 10.88 61.632-0.64 83.008"  horiz-adv-x="1024" />

    
    <glyph glyph-name="playon_fill" unicode="&#59160;" d="M626.976 342.592l-160-117.76a32 32 0 0 0-44.736 6.784 31.36 31.36 0 0 0-3.968 29.12A32.128 32.128 0 0 0 416 272v192c0 2.688 0.928 5.12 1.568 7.68a31.424 31.424 0 0 0 4.16 26.624 32 32 0 0 0 44.576 7.936l160-111.616a32.096 32.096 0 0 0 0.64-52.032M512 768C300.288 768 128 595.712 128 384.032c0-211.744 172.288-384 384-384 211.744 0 384 172.224 384 384 0 211.68-172.256 383.936-384 383.936"  horiz-adv-x="1024" />

    
    <glyph glyph-name="fujian" unicode="&#59025;" d="M842.752 636.1088a159.0272 159.0272 0 0 1-113.1008 46.8992h-0.1536a158.6176 158.6176 0 0 1-112.7424-46.6432l-0.1024-0.1024-294.5536-294.5024a95.9488 95.9488 0 0 1 135.7824-135.7312l294.5024 294.5024a32 32 0 0 1-45.2608 45.2096L412.672 251.2896a31.8976 31.8976 0 0 0-45.056 0.1536 31.5392 31.5392 0 0 0-0.2048 45.056l294.5024 294.5024c17.92 18.0224 42.24 28.0576 67.6352 28.0064h0.1024c25.4976 0 49.92-10.0864 67.8912-28.16 18.0736-18.1248 28.0576-42.24 28.1088-67.84 0.1024-25.4464-9.984-49.8176-27.9552-67.7888l-79.5136-79.5136-0.512-0.512-220.416-220.416a160.3072 160.3072 0 0 0-226.4576-0.1024 158.9248 158.9248 0 0 0-46.7456 113.1008c0 42.8032 16.6912 83.0464 46.8992 113.3056l300.288 300.288a32 32 0 0 1-45.2096 45.2608L225.6896 426.3424a222.8736 222.8736 0 0 1-65.6896-158.5664c0-59.904 23.2448-116.1728 65.536-158.4128 41.984-41.984 98.9184-65.536 158.3104-65.4336a223.6928 223.6928 0 0 1 158.5664 65.5872l311.4496 311.4496a31.6928 31.6928 0 0 1 7.168 11.0592 158.208 158.208 0 0 1 28.5696 91.0336 159.1296 159.1296 0 0 1-46.8992 113.0496"  horiz-adv-x="1024" />

    
    <glyph glyph-name="zhaopian" unicode="&#59026;" d="M799.9488 174.0288v-78.0288l-407.6544-0.1536h0.0512-90.4704l0.9216 0.9728 332.4928 317.952 164.6592-150.272V174.08zM416 576C468.9408 576 512 532.9408 512 480S468.992 384 416 384A96.1024 96.1024 0 0 0 320 480c0 52.9408 43.0592 96 96 96z m384.3072 160H223.744c-35.1744 0-63.744-28.5696-63.744-63.744v-576.512c0-35.1232 28.5696-63.744 63.744-63.744h576.5632a63.8464 63.8464 0 0 1 63.6928 63.744V672.256c0 35.1744-28.5184 63.6928-63.6928 63.744z"  horiz-adv-x="1024" />

    
    <glyph glyph-name="shipin" unicode="&#59027;" d="M842.8544 714.8544h-27.5968v-55.1424h-82.688V714.8544H291.4304v-55.1424H208.7424V714.8544h-27.5968A27.648 27.648 0 0 1 153.6 687.2576v-606.5152a27.648 27.648 0 0 1 27.5456-27.5968h27.5968v27.5968h82.688v-27.5968h441.1392v27.5968h82.688v-27.5968h27.5968a27.648 27.648 0 0 1 27.5456 27.5968V687.2576a27.648 27.648 0 0 1-27.5456 27.5968z m-551.424-551.424H208.7424v82.7392h82.688v-82.7392z m0 165.4272H208.7424V411.5456h82.688v-82.688z m0 165.376H208.7424V577.024h82.688v-82.688z m347.0336-128.3072L459.264 261.3248a20.736 20.736 0 0 0-20.1728 0.8704 20.1728 20.1728 0 0 0-9.728 17.2544V488.5504c0 7.0144 3.6864 13.568 9.728 17.2544a20.8896 20.8896 0 0 0 20.1216 0.8192l179.3024-104.5504a20.224 20.224 0 0 0 11.3664-18.0736c0-7.68-4.4032-14.6432-11.3664-18.0736z m176.7936-202.496h-82.688v82.7392h82.688v-82.7392z m0 165.4272h-82.688V411.5456h82.688v-82.688z m0 165.376h-82.688V577.024h82.688v-82.688z"  horiz-adv-x="1024" />

    
    <glyph glyph-name="ren" unicode="&#59028;" d="M597.7088 469.0432c0-1.28-0.9216-8.1408-9.3696-41.984l-22.272-84.3264c-7.168-24.9856-22.6304-47.7184-46.1824-67.5328-24.9856-21.4528-50.3296-32.3072-75.3664-32.3072-21.9136 0-38.8096 7.5776-51.8656 23.4496-12.288 14.0288-18.5856 34.4064-18.5856 60.672 0 61.1328 17.408 112.6912 51.8144 153.1904l0.1536 0.2048c31.744 39.0656 67.6864 58.0608 109.9264 58.0608 19.6096 0 34.4064-7.6288 45.568-23.808 10.8544-14.2848 16.1792-29.2352 16.1792-45.568m277.7088-248.4736a11.2128 11.2128 0 0 1-9.7792 5.7344h-53.504a11.2128 11.2128 0 0 1-9.1136-4.7104c-27.392-38.5536-64.3072-70.0928-109.6704-93.696-52.6336-26.3168-114.688-39.68-184.6272-39.68-91.2896 0-165.888 26.4704-221.7984 78.592-56.32 53.9136-84.992 129.7408-84.992 225.28 0 89.1904 29.696 163.6864 88.2176 221.5936 57.856 58.4704 131.6864 88.064 219.4944 88.064 82.2272 0 149.3504-24.4224 199.2704-72.4992 46.848-46.8992 70.6048-105.728 70.6048-174.8992 0-58.7264-17.8688-111.0528-52.8896-155.3408-30.1056-36.608-59.5456-55.1936-87.6032-55.1936-17.5104 0-18.944 7.168-18.944 15.0528 0 14.336 3.3792 31.744 10.2912 52.5824l70.0928 264.4992a11.2128 11.2128 0 0 1-10.8544 14.0288h-48.64a11.2128 11.2128 0 0 1-10.752-8.1408l-7.7312-27.2896c-19.6096 35.84-50.8928 53.9136-93.3376 53.9136-60.928 0-114.4832-27.1872-159.1296-80.64-47.0528-53.7088-70.8608-120.9344-70.8608-199.8848 0-43.52 13.1072-80.0768 38.7072-108.544 25.4976-28.9792 60.416-43.7248 103.7824-43.7248 45.5168 0 86.1696 18.4832 121.1904 54.9376 11.6224-43.0592 44.0832-52.9408 71.3216-52.9408 51.3024 0 99.7376 27.5456 144.0768 82.176 44.7488 58.112 67.4304 123.5456 67.4304 194.5088 0 88.8832-29.184 163.1744-86.8352 220.8256C697.856 736.768 615.0144 768 512.6144 768c-110.848 0-203.776-37.12-276.224-110.1824C164.4544 587.1616 128 498.4832 128 394.0864c0-110.8992 35.5328-201.6256 105.6256-269.7216 69.888-66.56 162.4576-100.3008 275.0976-100.3008 79.872 0 153.2416 16.7936 218.0096 49.8176 63.232 31.9488 113.152 77.5168 148.48 135.4752a11.1616 11.1616 0 0 1 0.1536 11.264"  horiz-adv-x="1024" />

    
    <glyph glyph-name="lianjie" unicode="&#59029;" d="M656.3328 311.808c-8.6016 8.5504-12.4416 20.5312-11.6224 35.9424l100.864 100.8128c45.6192 45.568 45.6192 119.808 0 165.5296l-3.4304 3.4304a117.248 117.248 0 0 1-165.4784 0l-100.864-100.864c-14.848 2.56-26.2656 7.68-34.1504 15.5648-7.8336 7.8848-12.544 18.7904-14.0288 32.6656l100.7616 100.864a185.4464 185.4464 0 0 0 261.9904 0l3.4816-3.4304a185.4464 185.4464 0 0 0 0-261.9904l-100.864-100.8128c-15.872-0.4096-28.1088 3.6864-36.6592 12.288z m-291.6864-263.8848a184.7296 184.7296 0 0 0-131.072 54.272l-3.4304 3.3792a185.4464 185.4464 0 0 0 0 262.0416l100.864 100.7616c17.664 0 30.208-3.6352 37.4784-10.9568 7.3216-7.3216 10.9056-19.7632 10.752-37.2736l-100.864-100.7616a117.248 117.248 0 0 1 0-165.5296l3.4816-3.4816c45.568-45.568 119.808-45.568 165.5296 0l100.7616 100.864c15.5648-2.56 27.136-7.68 34.8672-15.36 7.7312-7.7824 12.1856-18.688 13.3632-32.8192l-100.7616-100.864a184.4224 184.4224 0 0 0-130.9696-54.272z m20.8384 257.8432l204.8 204.8c20.1728 4.4032 34.7648 2.0992 43.6736-6.8608 8.9088-8.96 10.4448-22.784 4.5056-41.4208l-204.7488-204.8c-20.1216-3.072-34.0992-0.7168-41.984 7.168-7.936 7.936-10.0352 21.6064-6.2464 41.1136z"  horiz-adv-x="1024" />

    
    <glyph glyph-name="back_android" unicode="&#59373;" d="M800 416H268.8l233.6 233.6c12.8 12.8 12.8 32 0 44.8-12.8 12.8-32 12.8-44.8 0l-284.8-288c-12.8-12.8-12.8-32 0-44.8h3.2l284.8-288c6.4-6.4 16-9.6 22.4-9.6 9.6 0 16 3.2 22.4 9.6 12.8 12.8 12.8 32 0 44.8L272 352H800c19.2 0 32 12.8 32 32s-16 32-32 32z"  horiz-adv-x="1024" />

    
    <glyph glyph-name="delete" unicode="&#58959;" d="M620.9536 356.2496l370.688 370.2784a57.0368 57.0368 0 1 1-80.896 80.896L539.8528 437.248 169.1648 807.5264a57.0368 57.0368 0 1 1-80.896-80.896l370.688-370.2784-370.688-370.4832a57.0368 57.0368 0 1 1 80.896-80.896l370.688 370.3808L910.7456-95.232a56.832 56.832 0 0 1 80.896 0 57.0368 57.0368 0 0 1 0 80.896l-370.688 370.4832z"  horiz-adv-x="1024" />

    
    <glyph glyph-name="warning_fill" unicode="&#59197;" d="M522.656 219.936a32 32 0 1 0 0-64 32 32 0 0 0 0 64z m-32 256a32 32 0 1 0 64 0v-160a32 32 0 1 0-64 0v160z m418.528-363.584L566.528 708.288c-10.112 17.6-26.112 27.712-43.872 27.712s-33.728-10.08-43.872-27.712L136.16 112.384c-10.112-17.6-10.816-36.512-1.92-51.84 8.864-15.36 25.568-24.16 45.76-24.16h685.344c20.224 0 36.896 8.768 45.76 24.128 8.928 15.36 8.224 34.272-1.92 51.84z"  horiz-adv-x="1024" />

    
    <glyph glyph-name="icon-test" unicode="&#58968;" d="M512 210.752l-278.624 278.624 45.248 45.248L512 301.248l233.376 233.376 45.248-45.248z"  horiz-adv-x="1024" />

    
    <glyph glyph-name="zhifeiji" unicode="&#59349;" d="M899.6 779c9.9-7.1 13.8-16.7 12-28.5L797.3 64.8c-1.5-8.6-6.3-15.3-14.3-20.1-4.1-2.3-8.8-3.6-13.8-3.6-3.3 0-6.9 0.8-10.7 2.3L556.3 126 448.2-5.8c-5.4-6.9-12.7-10.2-21.9-10.2-3.8 0-7.1 0.6-9.9 1.8-5.6 2.1-10.2 5.5-13.6 10.5-3.4 4.9-5.2 10.3-5.2 16.3V168.3l385.7 472.8-477.2-413-176.3 72.3c-11 4.1-17 12.3-17.8 24.6-0.6 11.9 4.1 20.7 14.3 26.4L869.1 780c4.5 2.7 9.2 4 14.3 4 6 0 11.4-1.7 16.2-5z"  horiz-adv-x="1024" />

    
    <glyph glyph-name="activity_fill" unicode="&#59102;" d="M799.84 752H672V768a32 32 0 0 1-64 0v-16h-192V768a32 32 0 0 1-64 0v-16H223.712C188.576 752 160 721.984 160 685.088V592h704V685.088c0 36.896-28.768 66.912-64.16 66.912M640 400a32 32 0 0 0 0-64h-256a32 32 0 0 0 0 64h256z m-288-192a32 32 0 0 0 32 32h256a32 32 0 0 0 0-64h-256a32 32 0 0 0-32 32z m480 320H160v-477.12c0-36.864 28.608-66.88 63.744-66.88h576.512c35.136 0 63.744 30.016 63.744 66.88V528h-32z"  horiz-adv-x="1024" />

    
    <glyph glyph-name="collection_fill" unicode="&#59114;" d="M877.632 439.2c14.976 14.72 20.384 32.96 14.816 49.984-5.536 17.024-20.608 28.544-41.344 31.584l-190.24 27.84c-6.976 1.024-18.464 9.472-21.6 15.904l-85.12 173.696c-9.28 18.944-24.896 29.76-42.88 29.76-17.952 0-33.6-10.816-42.816-29.76l-85.12-173.696c-3.104-6.432-14.592-14.848-21.6-15.904l-190.24-27.84c-20.704-3.04-35.776-14.56-41.344-31.584-5.568-17.024-0.16-35.232 14.816-49.984l137.696-135.232c5.088-4.992 9.536-18.816 8.32-25.92l-32.48-190.912c-3.552-20.832 2.752-38.816 17.344-49.344 7.52-5.44 16.224-8.16 25.472-8.16 8.576 0 17.6 2.336 26.56 7.04l170.176 90.176c6.048 3.2 20.448 3.2 26.528 0l170.144-90.112c18.528-9.856 37.504-9.44 52.064 1.056 14.56 10.528 20.864 28.48 17.344 49.28l-32.48 190.976c-1.28 7.104 3.2 20.928 8.32 25.92l137.664 135.232z"  horiz-adv-x="1024" />

    
    <glyph glyph-name="coordinates_fill" unicode="&#59116;" d="M384 479.968c0 70.592 57.408 128 128 128s128-57.408 128-128-57.408-128-128-128-128 57.408-128 128m128.32 288h-0.64c-158.624-0.16-287.68-129.312-287.68-288 0-80.512 64.032-195.008 126.72-288a2026.4 2026.4 0 0 1 116.512-155.584 57.92 57.92 0 0 1 44.8-21.856h0.096a57.504 57.504 0 0 1 44.512 21.696 2024.256 2024.256 0 0 1 116.64 155.744c62.688 92.992 126.72 207.488 126.72 288 0 158.688-129.056 287.84-287.68 288"  horiz-adv-x="1024" />

    
    <glyph glyph-name="coupons_fill" unicode="&#59117;" d="M608 320a22.4 22.4 0 0 0 0-44.8h-73.6v-19.2a22.4 22.4 0 1 0-44.8 0v19.2H416a22.4 22.4 0 1 0 0 44.8h73.6v51.2H416a22.4 22.4 0 1 0 0 44.8h64.384l-0.224 0.16-64 64a22.4 22.4 0 0 0 31.68 31.68l64-64 0.16-0.224 0.16 0.224 64 64a22.368 22.368 0 1 0 31.68-31.68l-64-64-0.224-0.16H608a22.4 22.4 0 0 0 0-44.8h-73.6V320H608z m256 160h32V640.224A64 64 0 0 1 831.936 704H192.064A64 64 0 0 1 128 640.224V480h32c52.928 0 96-43.072 96-96s-43.072-96-96-96H128v-160.224A64 64 0 0 1 192.064 64h639.872A64 64 0 0 1 896 127.776V288h-32c-52.928 0-96 43.072-96 96s43.072 96 96 96z"  horiz-adv-x="1024" />

    
    <glyph glyph-name="flag_fill" unicode="&#59131;" d="M788.352 352.64l-111.168 153.312 111.168 153.376c12.16 16.8 14.528 35.584 6.4 51.552C786.624 726.816 769.984 736 749.12 736H288.064A63.968 63.968 0 0 1 224 672.224V32a32 32 0 0 1 64 0v243.968h461.12c20.992 0 37.696 9.184 45.824 25.088 8.064 15.84 5.696 34.656-6.592 51.584"  horiz-adv-x="1024" />

    
    <glyph glyph-name="interactive_fill" unicode="&#59141;" d="M688 480a48 48 0 0 0-0.064 96h0.128a48 48 0 0 0-0.064-96m-160 0a48 48 0 0 0-0.064 96h0.128a48 48 0 0 0-0.064-96m362.848 256h-0.032c-8.544 18.88-26.848 32-48.16 32H373.344c-21.312 0-39.648-13.12-48.16-32a56.512 56.512 0 0 1-5.184-23.264V576H160h53.344C183.936 576 160 551.168 160 520.64v-377.152c0-30.56 24-55.36 53.44-55.36H274.528c1.376-0.064 3.488-0.96 5.408-2.144l0.256-45.856c0-2.784 0.64-5.44 1.376-8.128a31.552 31.552 0 0 1 5.248-11.2c10.176-13.216 24.96-20.8 40.672-20.8h0.064c14.784 0 28.736 6.72 38.816 18.464l14.24 13.536 44.864 42.688c1.984 1.856 4.768 5.824 6.208 8.128a15.84 15.84 0 0 0 9.056 5.28h241.952c15.296 0 29.088 6.752 38.848 17.504l-0.352 0.352h0.544l-28.96 27.328-19.584 18.816h-0.352l-79.84 75.392H384c-115.04 0.992-118.016 94.976-118.016 94.976V540.8c0.128 1.088 0.672 2.08 0.672 3.232 0 1.152-0.544 2.112-0.672 3.232v0.256h-0.032A31.68 31.68 0 0 1 234.656 576H320v-240.608c0-5.376 0.992-10.464 2.4-15.36 6.496-23.008 26.752-39.936 50.912-39.936h241.952a15.84 15.84 0 0 0 9.024-5.216 31.776 31.776 0 0 1 6.24-8.192l59.136-56.224c10.048-11.744 24.064-18.464 38.816-18.464 2.56 0 5.024 0.512 7.52 0.896a51.84 51.84 0 0 1 33.184 19.904c4.256 5.536 6.592 12.32 6.656 19.328l0.256 45.856a13.216 13.216 0 0 0 5.344 2.112h61.12c24.256 0 44.544 16.96 51.072 39.904a56.32 56.32 0 0 1 2.368 15.488V712.64c0 8.384-1.92 16.256-5.152 23.392"  horiz-adv-x="1024" />

    
    <glyph glyph-name="like_fill" unicode="&#59143;" d="M672 704a222.72 222.72 0 0 1-160-67.68A222.592 222.592 0 0 1 352 704c-123.52 0-224-101.184-224-225.6 0-52.256 18.144-103.2 52.928-145.536l285.952-293.984a62.528 62.528 0 0 1 90.208 0l287.808 296.032A227.136 227.136 0 0 1 896 478.4C896 602.816 795.52 704 672 704"  horiz-adv-x="1024" />

    
    <glyph glyph-name="live_fill" unicode="&#59144;" d="M626.976 305.92l-160-117.728a31.936 31.936 0 0 0-44.736 6.816 31.424 31.424 0 0 0-3.968 29.12 31.904 31.904 0 0 0-2.272 11.2v192c0 2.72 0.896 5.152 1.568 7.68a31.424 31.424 0 0 0 4.16 26.624c10.176 14.432 30.08 18.016 44.576 7.936l160-111.616a32 32 0 0 0 0.64-52.032M800.32 635.328h-188.8l40.064 87.36c7.36 16.032 0.32 35.04-15.744 42.432a32.064 32.064 0 0 1-42.432-15.776l-52.32-114.016H459.52l-52.288 114.016A32.096 32.096 0 0 1 364.8 765.12a32.096 32.096 0 0 1-15.776-42.464l40.064-87.328H223.744a63.968 63.968 0 0 1-63.744-64v-480c0-35.296 28.608-64 63.744-64h576.544a63.936 63.936 0 0 1 63.68 64v480c0 35.264-28.544 64-63.68 64"  horiz-adv-x="1024" />

    
    <glyph glyph-name="mail_fill" unicode="&#59146;" d="M512 320a32 32 0 0 0-17.184 4.992L128 558.432v-430.656A64 64 0 0 1 192.064 64h639.872A64 64 0 0 1 896 127.776V558.112l-366.816-233.12A32.096 32.096 0 0 0 512 320M831.936 704H192.064A64 64 0 0 1 128 640.192v-4.896l384-245.376 384 244.032v6.24A64 64 0 0 1 831.936 704"  horiz-adv-x="1024" />

    
    <glyph glyph-name="order_fill" unicode="&#59155;" d="M640 416.032h-256a32 32 0 0 0 0 64h256a32 32 0 0 0 0-64m0-160h-256a32 32 0 0 0 0 64h256a32 32 0 0 0 0-64M800.256 768H223.744A64 64 0 0 1 160 703.936v-639.84A64 64 0 0 1 223.744 0h576.512A64 64 0 0 1 864 64.096V703.936A64 64 0 0 1 800.256 768"  horiz-adv-x="1024" />

    
    <glyph glyph-name="people_fill" unicode="&#59157;" d="M813.728 256c-3.904 1.728-58.56 25.6-129.312 45.792a883.616 883.616 0 0 1-72.608 17.568c36.096 30.592 59.552 75.68 59.552 126.656v123.104A167.168 167.168 0 0 1 504.192 736c-92.16 0-167.2-74.72-167.2-166.88v-123.104c0-52.352 24.768-98.624 62.72-129.248-25.472-5.408-50.112-11.904-72.8-18.688a1098.656 1098.656 0 0 1-115.648-41.664C182.016 244.672 160 211.808 160 180v-131.68l1.696-4.992c9.504-27.936 35.136-46.688 63.808-46.688h572.992a65.536 65.536 0 0 1 64.96 56.96l0.544 126.4c0 31.584-21.952 64.384-50.272 76"  horiz-adv-x="1024" />

    
    <glyph glyph-name="praise_fill" unicode="&#59162;" d="M866.272 513.664c-15.584 19.296-39.872 30.336-66.592 30.336h-164.992c23.168 67.232 5.376 145.024 4.352 149.312a30.944 30.944 0 0 1-4.928 10.656A95.808 95.808 0 0 1 544 768a95.84 95.84 0 0 1-95.456-90.72H448V656a111.328 111.328 0 0 0-37.984-83.392c-16-14.208-35.904-23.776-58.016-26.976V32h384.16c32.352 0 63.04 24.96 69.888 56.8l75.904 354.208c5.504 25.76-0.192 51.488-15.68 70.656M192.192 544C156.8 544 128 515.2 128 479.776v-383.552C128 60.832 156.64 32 191.84 32H288V544H192.192z"  horiz-adv-x="1024" />

    
    <glyph glyph-name="select_fill" unicode="&#59173;" d="M808.384 330.752c15.008 14.72 20.416 32.928 14.848 49.984-5.568 16.96-20.64 28.48-41.312 31.488l-144.352 21.12c-6.944 1.056-18.4 9.472-21.504 15.776l-64.544 131.84c-9.28 18.944-24.864 29.76-42.816 29.76s-33.536-10.816-42.816-29.76l-64.576-131.84c-3.104-6.336-14.528-14.752-21.472-15.744l-144.352-21.152c-20.736-3.04-35.84-14.56-41.344-31.552-5.568-17.056-0.128-35.264 14.848-49.92l104.448-102.592c5.056-4.992 9.472-18.752 8.288-25.824l-24.672-144.832c-2.816-16.48 0.64-31.488 9.792-42.304 8.224-9.728 20-15.104 33.152-15.104 8.64 0 17.536 2.336 26.4 7.04l129.12 68.416c4.576 2.432 21.76 2.432 26.336 0l129.152-68.416c22.144-11.712 45.856-8.096 59.52 8.064 9.12 10.816 12.576 25.824 9.76 42.304l-24.64 144.8c-1.184 7.104 3.2 20.864 8.288 25.856l104.448 102.592zM301.248 494.656a32 32 0 0 1 32 32V695.36a32 32 0 0 1-64 0v-168.704a32 32 0 0 1 32-32M429.248 590.656a32 32 0 0 1 32 32V695.36a32 32 0 0 1-64 0v-72.704a32 32 0 0 1 32-32M589.248 590.656a32 32 0 0 1 32 32V695.36a32 32 0 0 1-64 0v-72.704a32 32 0 0 1 32-32M717.248 503.36a32 32 0 0 1 32 32V704a32 32 0 0 1-64 0v-168.64a32 32 0 0 1 32-32"  horiz-adv-x="1024" />

    
    <glyph glyph-name="setup_fill" unicode="&#59176;" d="M672 394.56c0-88.192-71.776-160-160-160s-160 71.808-160 160c0 88.256 71.776 160 160 160s160-71.744 160-160m209.472 104.96a31.776 31.776 0 0 1-32.832 23.2 62.688 62.688 0 0 0-16.64 1.152 63.808 63.808 0 0 0-42.88 30.72 63.744 63.744 0 0 0 2.112 67.488 32 32 0 0 1-3.68 39.968c-19.584 20.16-41.632 37.248-64.832 52.544-35.808 23.616-74.976 41.92-116.864 52.448a31.968 31.968 0 0 1-36.48-16.832 63.68 63.68 0 0 0-57.28-35.616h-0.192a63.68 63.68 0 0 0-57.28 35.616 32 32 0 0 1-36.48 16.832c-41.92-10.56-81.056-28.832-116.864-52.48-23.2-15.264-45.248-32.352-64.832-52.512a32 32 0 0 1-3.712-40 63.68 63.68 0 0 0 2.112-67.456A63.392 63.392 0 0 0 192 523.968a62.816 62.816 0 0 0-16.672-1.28 31.52 31.52 0 0 1-32.8-23.168A383.136 383.136 0 0 1 128 394.56c0-35.616 4.864-70.912 14.528-104.864a31.904 31.904 0 0 1 32.8-23.2c5.664 0.32 11.264-0.224 16.672-1.312a63.776 63.776 0 0 0 40.736-98.048 32 32 0 0 1 3.712-40c19.584-20.16 41.632-37.248 64.8-52.544 35.84-23.68 74.976-41.92 116.896-52.416a31.936 31.936 0 0 1 36.48 16.832A63.648 63.648 0 0 0 512 74.56c24.512 0 46.496-13.632 57.376-35.584a32 32 0 0 1 36.48-16.832c41.92 10.496 81.056 28.768 116.864 52.416 23.2 15.296 45.248 32.384 64.832 52.576a32 32 0 0 1 3.68 39.968 63.68 63.68 0 0 0-2.112 67.456c9.408 16.32 24.992 27.2 42.88 30.72a65.28 65.28 0 0 0 16.64 1.184c15.04-0.896 28.704 8.736 32.832 23.2A384.64 384.64 0 0 1 896 394.56c0 35.648-4.896 70.944-14.528 104.928"  horiz-adv-x="1024" />

    
    <glyph glyph-name="share_fill" unicode="&#59177;" d="M736 288a127.776 127.776 0 0 1-115.232-73.28l-204.896 117.056a30.848 30.848 0 0 1-9.696 3.2A127.68 127.68 0 0 1 416 384c0 6.656-0.992 13.088-1.984 19.456 0.608 0.32 1.28 0.416 1.856 0.768l219.616 125.472A127.328 127.328 0 0 1 736 480c70.592 0 128 57.408 128 128s-57.408 128-128 128-128-57.408-128-128c0-6.72 0.992-13.152 1.984-19.616-0.608-0.288-1.28-0.256-1.856-0.608l-219.616-125.472A127.328 127.328 0 0 1 288 512c-70.592 0-128-57.408-128-128s57.408-128 128-128a126.912 126.912 0 0 1 84.544 32.64 31.232 31.232 0 0 1 11.584-12.416l224-128c0.352-0.224 0.736-0.256 1.12-0.448C615.488 83.008 669.6 32 736 32c70.592 0 128 57.408 128 128s-57.408 128-128 128"  horiz-adv-x="1024" />

    
    <glyph glyph-name="yunduanxiazai" unicode="&#60445;" d="M808.192 649.472a320.16 320.16 0 0 1-592.352 0A238.592 238.592 0 0 1 32 416.064c0-132.352 107.648-240 240-240h91.488a32 32 0 1 1 0 64H272a176.192 176.192 0 0 0-176 176 175.04 175.04 0 0 0 148.48 173.888l19.04 2.976 6.24 18.24C305.248 714.592 402.592 784.064 512 784.064a256 256 0 0 0 242.208-172.896l6.272-18.24 19.04-2.976A175.04 175.04 0 0 0 928 416.064c0-97.024-78.976-176-176-176h-97.28a32 32 0 1 1 0-64h97.28c132.352 0 240 107.648 240 240a238.592 238.592 0 0 1-183.808 233.408zM649.792 106.112L544 19.52V448.064a32 32 0 0 1-64 0V19.52l-106.752 87.424a31.968 31.968 0 1 1-40.544-49.504l159.04-130.24a32 32 0 0 1 40.576 0l158.048 129.44a32 32 0 1 1-40.576 49.472z"  horiz-adv-x="1024" />

    
    <glyph glyph-name="fuzhi" unicode="&#60538;" d="M720 704h-544A80.096 80.096 0 0 1 96 624v-608C96-28.128000000000043 131.904-64 176-64h544c44.128 0 80 35.872 80 80v608C800 668.096 764.128 704 720 704z m16-688c0-8.8-7.2-16-16-16h-544a16 16 0 0 0-16 16v608a16 16 0 0 0 16 16h544a16 16 0 0 0 16-16v-608zM848 832h-544a32 32 0 0 1 0-64h544a16 16 0 0 0 16-16v-608a32 32 0 1 1 64 0v608C928 796.096 892.128 832 848 832zM608 536H288a32 32 0 0 1 0-64h320a32 32 0 1 1 0 64zM608 376H288a32 32 0 1 1 0-64h320a32 32 0 1 1 0 64zM480 217.34400000000005H288a32 32 0 1 1 0-64h192a32 32 0 1 1 0 64z"  horiz-adv-x="1024" />

    
    <glyph glyph-name="remind" unicode="&#59167;" d="M612.576 177.44H244.896c20.96 44.448 49.184 112.64 49.184 157.984v160.64C294.08 610.784 391.84 704 512 704c120.16 0 217.92-93.248 217.92-207.904v-158.336c0-45.952 28.448-115.36 49.44-160.32h-166.784z m-100.576-96c-24.704 0-46.08 12.96-57.728 32h115.456c-11.648-19.04-33.024-32-57.728-32z m346.144 81.056l2.24 1.088c-17.664 33.12-63.424 128.96-63.424 174.176v158.336C796.96 646.016 669.12 768 512 768c-157.12 0-284.96-121.984-284.96-271.904v-160.672c0-39.52-38.848-126.272-63.328-171.68l2.24-1.12a30.24 30.24 0 0 1-5.952-17.184c0-17.664 15.04-32 33.536-32h189.12c15.008-55.04 67.072-96 129.344-96 62.272 0 114.336 40.96 129.344 96h189.12c18.528 0 33.536 14.336 33.536 32a30.4 30.4 0 0 1-5.856 17.056z"  horiz-adv-x="1024" />

    
    <glyph glyph-name="search" unicode="&#59201;" d="M192 416a256 256 0 1 0 512 0 256 256 0 0 0-512 0m631.776-362.496l-143.2 143.168A318.464 318.464 0 0 1 768 416c0 176.736-143.264 320-320 320S128 592.736 128 416s143.264-320 320-320a318.016 318.016 0 0 1 184.16 58.592l146.336-146.368c12.512-12.48 32.768-12.48 45.28 0 12.48 12.512 12.48 32.768 0 45.28"  horiz-adv-x="1024" />

    
    <glyph glyph-name="xinxi" unicode="&#58966;" d="M511.7 832C265.6 832 64.2 630.6 64.2 384.3s201.4-447.6 447.6-447.6 447.5 201.5 447.5 447.6S758 832 511.7 832z m0-828.1c-208.9 0-380.5 171.6-380.5 380.5S302.8 765 511.7 765s380.5-171.6 380.5-380.5-171.5-380.6-380.5-380.6z m85.9 261c-11.3 0-52.3-63.4-78.3-63.4-7.5 0-7.5 3.8-7.5 11.3 0 11.3 7.5 29.8 14.9 41l55.9 145.5c26.1 70.8-7.5 89.5-41 89.5-44.8 0-85.8-22.4-115.7-48.5-11.3-11.3-33.6-48.5-33.6-59.8 0-3.8 3.8-11.3 11.3-11.3 14.9 0 41 70.8 70.8 70.8 7.5 0 14.9-7.5 7.5-18.6L426 290.8c-3.8-11.3-33.6-55.9-33.6-89.5 0-29.8 18.6-59.8 48.5-59.8 78.3 0 167.8 93.3 167.8 111.8-3.7 8-7.4 11.6-11.1 11.6z m-14.9 361.9c-33.6 0-63.4-26.1-63.4-59.8 0-29.8 22.4-52.3 52.3-52.3 33.6 0 63.4 26.1 63.4 59.8 0 33.7-22.5 52.3-52.3 52.3z"  horiz-adv-x="1024" />

    
    <glyph glyph-name="icon_add" unicode="&#60303;" d="M542.308283 415.999808H926.290631c17.672498 0 31.998785-14.326287 31.998785-31.998785s-14.326287-31.998785-31.998785-31.998785H542.308283v-383.981324c0-17.672498-14.326287-31.998785-31.998785-31.998785s-31.998785 14.326287-31.998785 31.998785V352.003262H94.330412c-17.672498 0-31.998785 14.326287-31.998785 31.998785s14.326287 31.998785 31.998785 31.998784h383.981325V799.981133c0 17.672498 14.326287 31.998785 31.998784 31.998785s31.998785-14.326287 31.998785-31.998785v-383.981325z"  horiz-adv-x="1024" />

    
    <glyph glyph-name="icon_tianjia" unicode="&#60297;" d="M512-96C246.912-96 32 118.912 32 384 32 649.088 246.912 864 512 864c265.088 0 480-214.912 480-480 0-265.088-214.912-480-480-480z m0 64c229.76 0 416 186.24 416 416S741.76 800 512 800 96 613.76 96 384s186.24-416 416-416zM256 352a32 32 0 0 0 0 64h512a32 32 0 0 0 0-64H256zM480 640a32 32 0 0 0 64 0v-512a32 32 0 0 0-64 0V640z"  horiz-adv-x="1024" />

    
    <glyph glyph-name="shanchu" unicode="&#60539;" d="M928.16 752H736V832a32 32 0 0 1-32 32H320a32 32 0 0 1-32-32v-80H95.84a32 32 0 0 1 0-64H129.6l77.92-698.656A96 96 0 0 1 302.912-96h418.144a96.032 96.032 0 0 1 95.424 85.344L894.4 688h33.728a32 32 0 0 1 0.032 64zM352 800h320v-48H352V800z m400.896-803.552a32 32 0 0 0-31.808-28.448H302.912a32 32 0 0 0-31.808 28.448L193.984 688h636.032l-77.12-691.552zM608 75.072a32 32 0 0 1 32 32V576.896a32 32 0 0 1-64 0v-469.824a32 32 0 0 1 32-32zM432 75.072a32 32 0 0 1 32 32V576.896a32 32 0 0 1-64 0v-469.824a32 32 0 0 1 32-32z"  horiz-adv-x="1024" />

    
    <glyph glyph-name="tianxie" unicode="&#60552;" d="M928 530.336a32 32 0 0 1-32-32V32a32 32 0 0 0-32-32H160a32 32 0 0 0-32 32V736a32 32 0 0 0 32 32h429.6a32 32 0 0 1 0 64H160a96 96 0 0 1-96-96v-704a96 96 0 0 1 96-96h704a96 96 0 0 1 96 96V498.336a32 32 0 0 1-32 32zM231.616 199.584a38.4 38.4 0 0 1 44.256-53.792l148 38.368L950.496 710.752 814.72 846.528 290.432 322.24l-58.816-122.656z m111.808 85.12L814.72 756l45.248-45.248-468.992-468.992-77.824-20.16 30.272 63.104z"  horiz-adv-x="1024" />

    
    <glyph glyph-name="jifenmingxi" unicode="&#59022;" d="M515.413333 858.453333c-262.826667 0-477.866667-215.04-477.866666-477.866666s215.04-477.866667 477.866666-477.866667 477.866667 215.04 477.866667 477.866667-215.04 477.866667-477.866667 477.866666z m170.666667-645.12h-341.333333c-20.48 0-34.133333 13.653333-34.133334 34.133334s13.653333 34.133333 34.133334 34.133333h341.333333c20.48 0 34.133333-13.653333 34.133333-34.133333s-17.066667-34.133333-34.133333-34.133334z m0 133.12h-341.333333c-20.48 0-34.133333 13.653333-34.133334 34.133334s13.653333 34.133333 34.133334 34.133333h341.333333c20.48 0 34.133333-13.653333 34.133333-34.133333s-17.066667-34.133333-34.133333-34.133334z m0 139.946667h-341.333333c-20.48 0-34.133333 13.653333-34.133334 34.133333s13.653333 34.133333 34.133334 34.133334h341.333333c20.48 0 34.133333-13.653333 34.133333-34.133334s-17.066667-34.133333-34.133333-34.133333z"  horiz-adv-x="1024" />

    
    <glyph glyph-name="jifenpaiming" unicode="&#59023;" d="M512 868.693333C249.173333 868.693333 34.133333 653.653333 34.133333 390.826667s215.04-477.866667 477.866667-477.866667 477.866667 215.04 477.866667 477.866667-215.04 477.866667-477.866667 477.866666zM747.52 452.266667l-10.24-245.76c0-6.826667-3.413333-10.24-6.826667-13.653334-3.413333 0-64.853333-40.96-211.626666-40.96-146.773333 0-211.626667 37.546667-211.626667 40.96-3.413333 3.413333-6.826667 6.826667-6.826667 13.653334L279.893333 452.266667c-20.48 10.24-30.72 30.72-30.72 54.613333 0 34.133333 27.306667 61.44 61.44 61.44s61.44-27.306667 61.44-61.44c0-30.72-20.48-54.613333-47.786666-61.44 20.48-40.96 54.613333-88.746667 78.506666-88.746667 13.653333 0 44.373333 37.546667 81.92 139.946667-23.893333 10.24-40.96 34.133333-40.96 64.853333 0 37.546667 30.72 68.266667 71.68 68.266667 40.96 0 68.266667-30.72 68.266667-68.266667 0-27.306667-17.066667-51.2-40.96-64.853333 34.133333-95.573333 68.266667-143.36 85.333333-143.36s51.2 44.373333 75.093334 95.573333c-27.306667 6.826667-47.786667 30.72-47.786667 61.44 0 34.133333 27.306667 61.44 61.44 61.44s61.44-27.306667 61.44-61.44c0-27.306667-13.653333-47.786667-30.72-58.026666z"  horiz-adv-x="1024" />

    
    <glyph glyph-name="duihuanjilu" unicode="&#59024;" d="M515.413333 858.453333c262.826667 0 477.866667-215.04 477.866667-477.866666s-215.04-477.866667-477.866667-477.866667-477.866667 215.04-477.866666 477.866667 215.04 477.866667 477.866666 477.866666z m14.9504-539.374933v-189.2352c0-5.0176 1.9456-9.8304 5.393067-13.380267a18.090667 18.090667 0 0 1 12.970667-5.5296h128.682666c20.309333 0 36.7616 16.930133 36.7616 37.853867v170.2912a19.217067 19.217067 0 0 1-5.393066 13.380267 18.090667 18.090667 0 0 1-12.970667 5.5296h-147.0464a18.090667 18.090667 0 0 1-12.970667-5.5296 19.217067 19.217067 0 0 1-5.4272-13.380267z m-55.125333 18.909867H328.192a18.090667 18.090667 0 0 1-12.970667-5.5296 19.217067 19.217067 0 0 1-5.393066-13.380267v-170.325333c0-20.8896 16.452267-37.819733 36.7616-37.819734h128.682666a18.090667 18.090667 0 0 1 12.970667 5.5296 19.217067 19.217067 0 0 1 5.393067 13.380267v189.2352a19.217067 19.217067 0 0 1-5.393067 13.380267 18.090667 18.090667 0 0 1-12.970667 5.5296z m238.933333 189.201066h-36.420266a80.6912 80.6912 0 0 1-4.471467 106.7008 75.434667 75.434667 0 0 1-90.7264 13.858134c-15.2576-8.328533-26.897067-22.254933-34.235733-38.331734L512 529.681067l-36.625067 80.384a80.452267 80.452267 0 0 1-27.170133 33.450666 75.3664 75.3664 0 0 1-97.450667-9.6256 80.6912 80.6912 0 0 1-4.5056-106.7008H309.828267C289.518933 527.189333 273.066667 510.293333 273.066667 489.3696v-75.707733c0-20.8896 16.452267-37.819733 36.7616-37.819734h165.410133a18.090667 18.090667 0 0 1 12.970667 5.5296 19.217067 19.217067 0 0 1 5.4272 13.380267v75.093333c0 9.386667 6.2464 18.1248 15.291733 19.6608a18.0224 18.0224 0 0 0 14.916267-4.232533c4.130133-3.584 6.519467-8.874667 6.519466-14.4384v-76.117333c0-4.983467 1.9456-9.796267 5.393067-13.346134a18.090667 18.090667 0 0 1 12.970667-5.5296h165.444266c20.309333 0 36.7616 16.930133 36.7616 37.819734v75.707733c0 20.8896-16.452267 37.819733-36.7616 37.819733z m-298.496 0l-27.648 13.312a40.686933 40.686933 0 0 0-22.459733 30.276267 41.608533 41.608533 0 0 0 11.1616 36.352c9.181867 9.591467 22.391467 13.892267 35.293867 11.4688 12.9024-2.218667 23.893333-10.922667 29.3888-23.1424l31.095466-68.266667h-56.832z m242.756267 43.588267a40.618667 40.618667 0 0 0-22.493867-30.242133l-27.613866-13.312h-56.866134l31.1296 68.266666c5.461333 12.219733 16.4864 20.8896 29.3888 23.108267 12.9024 2.423467 26.112-1.877333 35.293867-11.4688 9.3184-9.489067 13.482667-23.074133 11.1616-36.352z"  horiz-adv-x="1024" />

    
    <glyph glyph-name="block" unicode="&#59359;" d="M856 520H648V728c0 8.8-7.2 16-16 16H168c-8.8 0-16-7.2-16-16v-464c0-8.8 7.2-16 16-16h208v-208c0-8.8 7.2-16 16-16h464c8.8 0 16 7.2 16 16V504c0 8.8-7.2 16-16 16z m-480-16v-188H220V676h360v-156H392c-8.8 0-16-7.2-16-16z m204-52v-136H444V452h136z m224-360H444V248h188c8.8 0 16 7.2 16 16V452h156v-360z"  horiz-adv-x="1024" />

    
    <glyph glyph-name="fire" unicode="&#59458;" d="M834.1 426.8c-19.5 43.8-47.4 82.6-82.9 115.2l-29.1 26.7c-4.3 3.8-11.1 2.1-13-3.3l-13-37.3c-8.1-23.4-23-47.3-44.1-70.8-1.4-1.5-3-1.9-4.1-2-1.1-0.1-2.8 0.1-4.3 1.5-1.4 1.2-2.1 3-2 4.8 3.7 60.2-14.3 128.1-53.7 202C555.3 725 510 772.9 453.4 806.3l-41.3 24.3c-5.4 3.2-12.3-1-12-7.3l2.2-48c1.5-32.8-2.3-61.8-11.3-85.9-11-29.5-26.8-56.9-47-81.5-14.2-17.2-30.1-32.7-47.5-46.1-42.1-32.3-76.8-74.4-100.3-121.5C172.5 392.7 160 339.4 160 286c0-47.2 9.3-92.9 27.7-136 17.8-41.5 43.2-78.9 75.5-110.9 32.4-32 70-57.2 111.9-74.7C418.5-53.8 464.5-63 512-63s93.5 9.2 136.9 27.3c41.9 17.5 79.6 42.6 111.9 74.7 32.4 32 57.8 69.4 75.5 110.9 18.4 43.1 27.7 88.8 27.7 136 0 48.8-10 96.2-29.9 140.9zM713 87.5c-53.7-53.2-125-82.4-201-82.4s-147.3 29.2-201 82.4c-53.5 53.1-83 123.5-83 198.4 0 43.5 9.8 85.2 29.1 124 18.8 37.9 46.8 71.8 80.8 97.9 21.5 16.4 41.2 35.5 58.6 56.8 25 30.5 44.6 64.5 58.2 101 5.4 14.5 9.5 30 12.1 46.5 24.1-22.2 44.3-49 61.2-80.4 33.4-62.6 48.8-118.3 45.8-165.7-1.4-22.8 7.5-44.5 24.4-59.8 14.7-13.2 33.7-19.9 53.4-18.8 19.7 1 37.8 9.7 51 24.4 13.3 14.9 24.8 30.1 34.4 45.6 14-17.9 25.7-37.4 35-58.4 15.9-35.8 24-73.9 24-113.1 0-74.9-29.5-145.4-83-198.4z"  horiz-adv-x="1024" />

    
    <glyph glyph-name="Field-time" unicode="&#59662;" d="M945 484H689c-4.4 0-8-3.6-8-8v-48c0-4.4 3.6-8 8-8h256c4.4 0 8 3.6 8 8v48c0 4.4-3.6 8-8 8zM811 348H689c-4.4 0-8-3.6-8-8v-48c0-4.4 3.6-8 8-8h122c4.4 0 8 3.6 8 8v48c0 4.4-3.6 8-8 8zM477.3 573.5H434c-6.2 0-11.2-5-11.2-11.2v-248c0-3.6 1.7-6.9 4.6-9l148.9-108.6c5-3.6 12-2.6 15.6 2.4l25.7 35.1v0.1c3.6 5 2.5 12-2.5 15.6l-126.7 91.6V562.3c0.1 6.2-5 11.2-11.1 11.2zM804.8 222.1H747c-5.6 0-10.9-2.9-13.9-7.7-12.7-20.1-27.5-38.7-44.5-55.7-29.3-29.3-63.4-52.3-101.3-68.3-39.3-16.6-81-25-124-25-43.1 0-84.8 8.4-124 25-37.9 16-72 39-101.3 68.3s-52.3 63.4-68.3 101.3c-16.6 39.2-25 80.9-25 124 0 43.1 8.4 84.7 25 124 16 37.9 39 72 68.3 101.3 29.3 29.3 63.4 52.3 101.3 68.3 39.2 16.6 81 25 124 25 43.1 0 84.8-8.4 124-25 37.9-16 72-39 101.3-68.3 17-17 31.8-35.6 44.5-55.7 3-4.8 8.3-7.7 13.9-7.7h57.8c6.9 0 11.3 7.2 8.2 13.3-65.2 129.7-197.4 214-345 215.7-216.1 2.7-395.6-174.2-396-390.1C71.6 168.5 246.9-7 463.2-7c149.5 0 283.9 84.6 349.8 215.8 3.1 6.1-1.4 13.3-8.2 13.3z"  horiz-adv-x="1024" />

    
    <glyph glyph-name="draft" unicode="&#59019;" d="M833.728 555.904l-163.904 178.112A103.552 103.552 0 0 1 640 755.328v-211.2l202.368-0.128c-2.752 4.224-5.504 8.512-8.64 11.904M640 320H384a32 32 0 0 0 0 64h256a32 32 0 1 0 0-64m0-160H384a32 32 0 1 0 0 64h256a32 32 0 1 0 0-64m0.064 320A64.128 64.128 0 0 0 576 544.128V768H223.808A64 64 0 0 1 160 703.936v-639.872A64 64 0 0 1 223.744 0h576.512a64 64 0 0 1 63.744 64.128V478.336c0 0.576-0.128 1.152-0.192 1.664h-223.744z"  horiz-adv-x="1024" />

    
    <glyph glyph-name="writepage" unicode="&#59020;" d="M879.04 572.608L702.272 749.44a64 64 0 0 1-90.496-0.256L544.448 681.792l44.8-44.672 0.96 0.192h0.064l176.64-176.576 30.272-30.336 14.848-14.912 66.752 66.752a64 64 0 0 1 0.256 90.368zM325.888 80.64l-13.568 13.632-88.32 88.64-14.08 14.144-40.704 43.392-9.216 9.792v-156.16c0-35.136 28.608-63.68 63.68-63.68h154.24l-11.648 11.2-40.384 39.04z m219.136 511.488l-45.248 45.056-320.192-320.192 45.312-45.184 176.512-176.704 45.184-45.056 318.976 318.976-43.968 46.528-176.576 176.576z"  horiz-adv-x="1024" />

    
    <glyph glyph-name="vote" unicode="&#59021;" d="M596.736 521.152H469.952a27.776 27.776 0 0 1-28.16-27.456v-466.24c0-15.168 12.608-27.456 28.16-27.456h126.72c15.616 0 28.16 12.288 28.16 27.456V493.696a27.776 27.776 0 0 1-28.16 27.456zM867.84 768h-126.72a27.776 27.776 0 0 1-28.16-27.456V27.52c0-15.168 12.544-27.456 28.16-27.456h126.72c15.552 0 28.16 12.288 28.16 27.456V740.48A27.776 27.776 0 0 1 867.84 768zM325.568 274.304h-126.72a27.776 27.776 0 0 1-28.16-27.456v-219.392c0-15.168 12.544-27.456 28.16-27.456h126.72c15.616 0 28.16 12.288 28.16 27.456v219.392a27.776 27.776 0 0 1-28.16 27.456z"  horiz-adv-x="1024" />

    
    <glyph glyph-name="tupian1" unicode="&#58881;" d="M432.888596 240.596222L359.342127 342.35366999999997C349.598306 355.83502899999996 333.800712 355.83489 324.05699 342.35366999999997L188.471613 154.76040999999998C178.727792 141.27904999999998 184.541661 130.350499 201.457031 130.350499L447.704979 130.350499 822.658642 130.350499C839.583509 130.350499 845.267916 141.25514999999996 835.42945 154.70671800000002L620.563382 448.480695C610.659782 462.021318 594.773609 461.932263 584.935143 448.480695L432.888596 240.596222 432.888596 240.596222ZM273.271058 548.1261480000001a58.4 58.4 0 1 1 119.364471 0 58.4 58.4 0 1 1-119.364471 0ZM109.081528 697.331737L914.918473 697.331737C906.5326 697.331737 899.934531 704.008842 899.934531 712.19925L899.934531 55.800749999999994C899.934531 64.00834899999995 906.565377 70.66826300000002 914.918473 70.66826300000002L109.081528 70.66826300000002C117.4674 70.66826300000002 124.065469 63.99115800000004 124.065469 55.800749999999994L124.065469 712.19925C124.065469 703.991651 117.434624 697.331737 109.081528 697.331737ZM64.383234 55.800749999999994C64.383234 31.18760199999997 84.345684 10.986028000000033 109.081528 10.986028000000033L914.918473 10.986028000000033C939.585548 10.986028000000033 959.616766 31.105060999999978 959.616766 55.800749999999994L959.616766 712.19925C959.616766 736.812398 939.654316 757.013972 914.918473 757.013972L109.081528 757.013972C84.414452 757.013972 64.383234 736.894939 64.383234 712.19925L64.383234 55.800749999999994Z"  horiz-adv-x="1024" />

    
    <glyph glyph-name="dynamic_fill" unicode="&#59124;" d="M763.712 407.936l-139.424-139.424a31.904 31.904 0 0 0-45.248 0l-102.336 102.336-134.208-132.864a31.936 31.936 0 0 0-45.248 0.256 32 32 0 0 0 0.224 45.248l156.832 155.264a32 32 0 0 0 45.152-0.128l102.208-102.24 116.8 116.8a31.968 31.968 0 1 0 45.248-45.248M800.256 736H223.744A63.808 63.808 0 0 1 160 672.256v-576.512C160 60.576 188.576 32 223.744 32h576.512A63.808 63.808 0 0 1 864 95.744V672.256A63.84 63.84 0 0 1 800.256 736"  horiz-adv-x="1024" />

    
    <glyph glyph-name="dynamic" unicode="&#59125;" d="M224 95.744V672l576 0.288 0.256-576.32L224 95.776zM800.256 736H223.744A63.808 63.808 0 0 1 160 672.288v-576.544C160 60.608 188.608 32 223.744 32h576.512A63.84 63.84 0 0 1 864 95.744V672.288a63.808 63.808 0 0 1-63.744 63.68zM718.464 453.184l-116.8-116.768-102.176 102.208a32 32 0 0 1-45.152 0.128l-156.832-155.2a32.032 32.032 0 0 1 45.024-45.536l134.208 132.832 102.336-102.336a32.96 32.96 0 0 1 45.248 0l139.392 139.424a31.968 31.968 0 1 1-45.248 45.248"  horiz-adv-x="1024" />

    
    <glyph glyph-name="enter" unicode="&#59128;" d="M693.792 397.76l-320 297.664a32 32 0 0 1-43.584-46.848l295.36-274.752-295.84-286.848a31.968 31.968 0 1 1 44.544-45.92l320 310.272a31.968 31.968 0 0 1-0.48 46.4"  horiz-adv-x="1024" />

    
    <glyph glyph-name="homepage_fill" unicode="&#59138;" d="M640 105.472H297.504v0.096l86.496-0.032v118.88c0 0.8 0.224 1.536 0.224 2.304 1.28 69.6 57.984 125.888 127.776 125.888s126.496-56.32 127.776-125.888c0-0.768 0.224-1.504 0.224-2.304v-118.944z m240.896 427.68L800 586.144V688.832a32 32 0 1 1-64 0v-60.8l-206.464 135.328A31.296 31.296 0 0 1 511.424 768a31.168 31.168 0 0 1-17.6-4.64L142.464 533.12a32 32 0 0 1 35.072-53.536L192 489.088V96c0-30.08 27.168-54.592 60.576-54.592h518.848C804.832 41.44 832 65.92 832 96V488.64l13.856-9.056a31.968 31.968 0 0 1 35.04 53.536z"  horiz-adv-x="1024" />

    
    <glyph glyph-name="homepage" unicode="&#59139;" d="M768 105.44l-128 0.032v118.944a128.224 128.224 0 0 1-128 128.192c-70.592 0-128-57.504-128-128.192v-118.88l-128 0.032V531.008l255.68 167.52L768 530.624v-425.184z m-192 0.032l-128 0.032v118.912c0 35.392 28.704 64.192 64 64.192s64-28.8 64-64.192v-118.944z m304.896 427.68L800 586.144V688.832a32 32 0 1 1-64 0v-60.768l-206.464 135.296A31.296 31.296 0 0 1 511.424 768a31.168 31.168 0 0 1-17.6-4.64l-351.36-230.208a32 32 0 0 1 35.072-53.536L192 489.088v-393.056c0-30.08 27.2-54.592 60.576-54.592h518.848c33.408 0 60.576 24.512 60.576 54.592v392.64l13.856-9.056a31.968 31.968 0 0 1 35.04 53.536z"  horiz-adv-x="1024" />

    
    <glyph glyph-name="manage_fill" unicode="&#59147;" d="M416.096 728.224H223.904A64 64 0 0 1 160 664.32v-192.192a64 64 0 0 1 63.904-63.904h192.192A64 64 0 0 1 480 472.128V664.32a64 64 0 0 1-63.904 63.904M885.088 613.44l-135.904 135.872a64 64 0 0 1-90.368 0L640 730.496 522.912 613.44a63.456 63.456 0 0 1-18.656-45.056 63.456 63.456 0 0 1 18.656-45.312l18.816-18.816L640 405.92l18.816-18.816a63.904 63.904 0 0 1 90.368 0.032l117.088 117.12 18.816 18.784a63.936 63.936 0 0 1 0 90.368M416.096 344.224H223.904A64 64 0 0 1 160 280.32v-192.192a64 64 0 0 1 63.904-63.904h192.192A64 64 0 0 1 480 88.128V280.32a64 64 0 0 1-63.904 63.904M800.096 344.224h-192.192A64 64 0 0 1 544 280.32v-192.192a64 64 0 0 1 63.904-63.904h192.192A64 64 0 0 1 864 88.128V280.32a64 64 0 0 1-63.904 63.904"  horiz-adv-x="1024" />

    
    <glyph glyph-name="manage" unicode="&#59148;" d="M224 472.16V664.256l192 0.096 0.096-192.096L224 472.16z m192.096 256.096H223.904A64 64 0 0 1 160 664.32v-192.192a64 64 0 0 1 63.904-63.904h192.192A64 64 0 0 1 480 472.16V664.32a64 64 0 0 1-63.904 63.904zM224 88.16v192.096l192 0.096 0.096-192.096L224 88.16z m192.096 256.096H223.904A64 64 0 0 1 160 280.32v-192.192a64 64 0 0 1 63.904-63.904h192.192A64 64 0 0 1 480 88.16V280.32a64 64 0 0 1-63.904 63.904zM704.064 432.384l-135.84 135.84 135.712 135.84 135.904-135.744-135.776-135.936z m181.024 181.024l-135.904 135.904a64 64 0 0 1-90.368 0L522.912 613.44a63.456 63.456 0 0 1-18.656-45.056 63.456 63.456 0 0 1 18.656-45.312l135.904-135.936a63.904 63.904 0 0 1 90.368 0.032l135.904 135.904a63.936 63.936 0 0 1 0 90.368zM608 88.16v192.096l192 0.096 0.096-192.096-192.096-0.096z m192.096 256.096h-192.192A64 64 0 0 1 544 280.32v-192.192a64 64 0 0 1 63.904-63.904h192.192A64 64 0 0 1 864 88.16V280.32a64 64 0 0 1-63.904 63.904z"  horiz-adv-x="1024" />

    
    <glyph glyph-name="mine" unicode="&#59150;" d="M512 64a318.432 318.432 0 0 0-215.648 84.256C351.264 166.016 443.008 192 509.952 192c68.064 0 162.048-26.976 216.608-44.704A318.24 318.24 0 0 0 512 64m0 224c-52.928 0-96 43.104-96 96.064v95.872A96.16 96.16 0 0 0 512 576c52.928 0 96-43.104 96-96.064v-95.872A96.16 96.16 0 0 0 512 288m0 416c176.448 0 320-143.552 320-320a318.016 318.016 0 0 0-59.136-184.704c-34.432 12-106.944 35.52-178.656 48.16C640.608 275.52 672 325.984 672 384.064v95.872A160.224 160.224 0 0 1 512 640c-88.224 0-160-71.808-160-160.064v-95.872c0-57.664 30.944-107.904 76.832-136.064-70.656-12.16-142.464-35.104-178.528-47.584A317.952 317.952 0 0 0 192 384c0 176.448 143.552 320 320 320m0 64C300.256 768 128 595.744 128 384s172.256-384 384-384 384 172.256 384 384S723.744 768 512 768"  horiz-adv-x="1024" />

    
    <glyph glyph-name="mine_fill" unicode="&#59151;" d="M512 64a318.432 318.432 0 0 0-215.648 84.256C351.264 166.016 443.008 192 509.952 192c68.064 0 162.048-26.976 216.608-44.704A318.24 318.24 0 0 0 512 64z m-160 324.672v91.264A160.224 160.224 0 0 0 512 640c88.224 0 160-71.808 160-160.064v-95.104c0-10.24-1.184-20.192-3.008-29.888l-0.928-4.576a159.296 159.296 0 0 0-22.528-53.28l-1.984-2.944a163.2 163.2 0 0 0-41.056-40.96l-2.016-1.376a159.136 159.136 0 0 0-88.48-26.816 159.232 159.232 0 0 0-88.672 26.88l-1.792 1.248a162.144 162.144 0 0 0-41.12 41.024l-2.048 3.04a159.264 159.264 0 0 0-22.432 53.184l-0.928 4.608a160.896 160.896 0 0 0-3.008 29.856v3.84zM512 768C300.256 768 128 595.744 128 384s172.256-384 384-384 384 172.256 384 384S723.744 768 512 768z"  horiz-adv-x="1024" />

    
    <glyph glyph-name="add" unicode="&#59018;" d="M512-128C229.2224-128 0 101.2224 0 384S229.2224 896 512 896s512-229.2224 512-512-229.2224-512-512-512z m17.7408 529.7408v213.0432a11.8272 11.8272 0 0 1-11.8272 11.8272h-11.8272a11.8272 11.8272 0 0 1-11.8272-11.8272v-213.0432h-213.0432a11.8272 11.8272 0 0 1-11.8272-11.8272v-11.8272c0-6.528 5.2992-11.8272 11.8272-11.8272h213.0432v-213.0432c0-6.528 5.2992-11.8272 11.8272-11.8272h11.8272a11.8272 11.8272 0 0 1 11.8272 11.8272v213.0432h213.0432a11.8272 11.8272 0 0 1 11.8272 11.8272v11.8272a11.8272 11.8272 0 0 1-11.8272 11.8272h-213.0432z"  horiz-adv-x="1024" />

    
    <glyph glyph-name="chexiao" unicode="&#59037;" d="M422.785-0.321L81.931 340.532c-23.908 23.908-23.908 63.028 0 86.936l340.853 340.853-0.363-230.74c78.965-1.448 156.843 1.088 214.799-17.024 63.755-20.284 116.998-52.524 159.017-96.714 41.654-43.83 75.704-95.264 100.697-151.409 25.357-56.508 46.366-127.504 62.668-210.455l0.363-3.983c0.725-15.939-10.142-30.427-25.359-33.326-13.762-3.62-28.616 1.81-36.945 13.766-24.631 30.427-81.138 65.199-122.07 90.916-9.78 6.159-18.837 11.591-26.803 16.662-39.121 25.359-81.863 44.189-126.778 55.781-33.687 9.058-157.934 28.255-199.592 28.617l0.367-230.733z m-0.367 230.736"  horiz-adv-x="1024" />

    
    <glyph glyph-name="changjingguanli" unicode="&#60257;" d="M592 560h-416c-52.928 0-96-43.072-96-96v-416c0-52.928 43.072-96 96-96h416c52.928 0 96 43.072 96 96v416c0 52.928-43.072 96-96 96z m32-512a32 32 0 0 0-32-32h-416c-17.632 0-32 14.336-32 32v416c0 17.632 14.368 32 32 32h416c17.664 0 32-14.368 32-32v-416zM720 688h-416a32 32 0 0 1 0-64h416c17.664 0 32-14.368 32-32v-416a32 32 0 1 1 64 0v416c0 52.928-43.072 96-96 96zM528 144h-288a32 32 0 1 1 0-64h288a32 32 0 1 1 0 64zM848 816h-416a32 32 0 0 1 0-64h416c17.664 0 32-14.368 32-32v-416a32 32 0 1 1 64 0v416c0 52.928-43.072 96-96 96z"  horiz-adv-x="1024" />

    
    <glyph glyph-name="icon_shiyongwendang" unicode="&#60305;" d="M288 576a32 32 0 1 0 0 64h448a32 32 0 0 0 0-64H288zM288 352a32 32 0 0 0 0 64h448a32 32 0 0 0 0-64H288zM288 128a32 32 0 0 0 0 64h128a32 32 0 0 0 0-64H288zM807.968 93.76a32 32 0 0 0 41.984-48.32l-153.856-133.6a32 32 0 0 0-20.992-7.84H195.04C140.16-96 96-50.624 96 4.928V763.072C96 818.624 140.16 864 195.04 864h633.92C883.84 864 928 818.624 928 763.072v-564.32a32 32 0 1 0-64 0V763.072C864 783.68 848.096 800 828.96 800H195.04C175.904 800 160 783.68 160 763.072v-758.144C160-15.68 175.904-32 195.04-32h468.096l144.832 125.76zM704-63.136a32 32 0 1 0-64 0v186.24C640 178.592 684.16 224 739.04 224h157.632a32 32 0 0 0 0-64h-157.632c-19.136 0-35.04-16.32-35.04-36.928v-186.24z"  horiz-adv-x="1024" />

    
    <glyph glyph-name="bianjijilu" unicode="&#60469;" d="M448 0H163.04C143.904 0 128 16.32000000000005 128 36.928V731.072C128 751.6800000000001 143.904 768 163.04 768h569.92C752.096 768 768 751.6800000000001 768 731.072v-182.464a32 32 0 0 1 64 0V731.072C832 786.624 787.84 832 732.96 832H163.04C108.16 832 64 786.624 64 731.072v-694.144C64-18.624000000000024 108.16-64 163.04-64H448a32 32 0 0 1 0 64zM736 448a256 256 0 1 1 0-512 256 256 0 0 1 0 512z m0-448a192 192 0 1 0 0 384 192 192 0 0 0 0-384zM831.456 208H752v64a32 32 0 0 1-64 0v-96a32 32 0 0 1 32-32h111.456a32 32 0 0 1 0 64zM640 576a32 32 0 0 1-32 32H288a32 32 0 0 1 0-64h320a32 32 0 0 1 32 32zM288 352a32 32 0 0 1 0-64h80.288a32 32 0 0 1 0 64H288z"  horiz-adv-x="1024" />

    
    <glyph glyph-name="advertisem" unicode="&#59713;" d="M541.926 773.018c-6.758 3.123-14.745 2.073-20.454-2.688l-249.216-209.716h-198.323c-10.599 0-19.2-8.601-19.2-19.2v-329.062c0-10.598 8.601-19.2 19.2-19.2h198.323l249.216-209.715c3.533-2.944 7.936-4.506 12.365-4.506 2.739 0 5.504 0.589 8.090 1.792 6.615 3.12 11.11 9.734 11.11 17.398 0 0.004-0 0.007-0 0.011l0 757.478c0 7.475-4.327 14.259-11.11 17.408zM677.53 152.192c-5.3 0-10.548 2.176-14.362 6.426-7.040 7.936-6.349 20.044 1.562 27.11 54.476 48.538 85.734 118.195 85.734 191.13 0 75.622-33.203 146.995-91.085 195.788-8.115 6.836-9.139 18.944-2.304 27.060 6.81 8.064 18.97 9.139 27.060 2.304 66.56-56.090 104.729-138.164 104.729-225.152 0-83.84-35.917-163.968-98.586-219.776-3.635-3.303-8.192-4.89-12.748-4.89zM783.334 61.85c-6.528 0-12.928 3.353-16.512 9.37-5.427 9.113-2.432 20.889 6.682 26.316 98.048 58.317 158.95 165.35 158.95 279.296 0 114.586-61.388 221.9-160.256 280.064-9.139 5.376-12.185 17.152-6.81 26.291 5.402 9.114 17.153 12.16 26.292 6.81 110.515-65.050 179.174-185.063 179.174-313.165 0-127.411-68.096-247.066-177.715-312.294-3.097-1.818-6.451-2.688-9.805-2.688z"  horiz-adv-x="1024" />

    
    <glyph glyph-name="zhuanhuan" unicode="&#59667;" d="M187.151 525.192s65.897 101.616 169.924 156.13c104.207 54.452 232.388 38.79 316.476-14.035 84.089-52.827 112.46-97.461 112.46-97.461l72.462 41.321s14.939 7.41 14.939-9.939v-259.312s0-23.13-17.468-14.818c-14.698 6.927-173.9 97.46-224.016 126.012-27.467 12.288-3.312 22.287-3.312 22.287l69.933 39.936s-39.876 49.995-98.304 76.499c-62.404 32.527-120.893 36.382-192.512 9.336C360.93 583.5 305.935 538.263 266.36 471.582l-79.209 53.61z m649.698-342.68s-65.897-101.496-169.924-156.008C562.84-28.01 434.537-12.348 350.45 40.478c-84.089 52.887-112.46 97.46-112.46 97.46l-72.462-41.26s-14.939-7.41-14.939 9.878V365.87s0 23.13 17.468 14.878c14.698-6.927 173.9-97.46 224.016-126.012 27.467-12.288 3.312-22.287 3.312-22.287l-69.933-39.996s39.876-49.996 98.304-76.5c62.404-32.526 120.893-36.381 192.512-9.275 46.803 17.649 101.798 62.825 141.373 129.506l79.209-53.61z"  horiz-adv-x="1024" />

    
    <glyph glyph-name="close" unicode="&#59113;" d="M544.448 396.8l284.576 284.576a32 32 0 0 1-45.248 45.248L499.2 442.048 214.624 726.624a32 32 0 0 1-45.248-45.248l284.576-284.576-284.576-284.576a32 32 0 0 1 45.248-45.248l284.576 284.576 284.576-284.576a31.904 31.904 0 0 1 45.248 0 32 32 0 0 1 0 45.248L544.448 396.8z"  horiz-adv-x="1024" />

    
    <glyph glyph-name="invite" unicode="&#59017;" d="M877.696 277.888a1082.624 1082.624 0 0 1-191.04 61.056A176 176 0 0 1 768 487.168V592A176.064 176.064 0 0 1 592.32 768c-50.432 0-98.368-21.76-131.648-59.712a175.424 175.424 0 0 1-44.16-116.352v-104.768a176 176 0 0 1 74.112-143.36c-108.16-18.688-210.752-63.488-215.552-65.6-29.184-11.904-51.072-44.736-51.072-76.288v-126.4h0.576c4.288-32.64 32-56.96 64.896-56.96h573.056c28.608 0 54.272 18.752 63.744 46.656l1.728 4.992v131.712c0 31.808-22.016 64.64-50.304 75.968M322.432 350.144c34.944 10.88 51.52 17.024 51.52 17.024s22.656 9.984 16.704 29.952c-14.016 26.688-24 47.36-24 125.376V623.808s6.016 49.28 24.96 54.016c1.6 1.6 1.856 4.032 1.152 6.72A31.936 31.936 0 0 1 363.328 704a132.864 132.864 0 0 1-132.608-132.8V487.04c0-32.768 12.352-62.4 32.064-85.568a690.56 690.56 0 0 1-127.552-55.424 71.552 71.552 0 0 1-39.232-62.464v-91.904a31.68 31.68 0 1 1 63.296-3.52c0.128 1.152 0.704 2.24 0.704 3.52v14.656c2.56 30.272 13.952 85.312 60.992 111.04 7.232 3.2 14.912 6.336 22.72 9.472 26.368 7.36 52.608 15.168 78.72 23.296"  horiz-adv-x="1024" />

    
    <glyph glyph-name="droplist_best" unicode="&#59016;" d="M615.04 448h-224a32 32 0 0 0 0 64h224a32 32 0 0 0 0-64m257.216 69.76l-56.576 136.704a72.064 72.064 0 0 1-8.64 14.848V672h-2.048c-15.296 19.008-39.68 32-63.488 32H264.448c-23.744 0-48.192-12.992-63.424-32H199.04v-2.752a70.4 70.4 0 0 1-8.704-14.848L133.76 517.44c-11.2-27.136-5.632-64.576 12.992-87.168l52.288-63.36L264.192 288l193.664-234.88c11.52-13.888 27.968-21.888 45.12-21.888a58.688 58.688 0 0 1 45.184 21.952L741.76 288l65.28 79.232 52.224 63.36c18.944 22.976 24.384 59.648 12.992 87.168"  horiz-adv-x="1024" />

    
    <glyph glyph-name="droplist_alltop" unicode="&#59009;" d="M857.6 276.48L551.296 696.64a35.84 35.84 0 0 1-59.712 1.024L169.216 277.44c-17.472-25.088-0.512-60.16 29.632-60.16h151.424v-195.136c0-29.568 23.36-54.144 52.48-54.144h218.88c28.672 0 52.48 24.064 52.48 54.144v195.136h152.96c29.568 0 47.04 34.112 30.528 59.136zM201.28 714.688h621.44a41.92 41.92 0 0 1 41.216 42.624 41.92 41.92 0 0 1-41.28 42.624h-621.44a41.92 41.92 0 0 1-41.216-42.624c0-23.552 18.432-42.624 41.28-42.624z"  horiz-adv-x="1024" />

    
    <glyph glyph-name="droplist_message" unicode="&#59010;" d="M688 352a48 48 0 1 0 0 96 48 48 0 0 0 0-96M512 352A48 48 0 1 0 512 448a48 48 0 0 0 0-96m-176 0A48 48 0 1 0 333.44 448a48 48 0 0 0 2.56-96M805.312 704H218.688c-32.32 0-58.688-27.52-58.688-61.248v-471.36c0-33.856 26.432-61.312 58.816-61.312h189.376a26.24 26.24 0 0 0 18.24-10.752l38.08-71.936 2.944-4.544a56.32 56.32 0 0 1 44.48-22.848c17.216 0 33.408 8.32 44.608 22.848l40.96 76.544a26.368 26.368 0 0 0 18.368 10.688h189.504c32.32 0 58.624 27.52 58.624 61.248V642.752c0 33.728-26.368 61.248-58.688 61.248"  horiz-adv-x="1024" />

    
    <glyph glyph-name="droplist_collection" unicode="&#59011;" d="M877.632 439.168c14.976 14.72 20.416 33.024 14.848 50.048s-20.608 28.544-41.344 31.552l-190.272 27.84a37.376 37.376 0 0 0-21.632 15.872l-85.12 173.696C544.896 757.12 529.28 768 511.296 768c-17.92 0-33.6-10.88-42.816-29.824L383.36 564.608a37.376 37.376 0 0 0-21.568-15.936l-190.272-27.84c-20.672-3.008-35.712-14.528-41.28-31.552-5.568-17.024-0.192-35.264 14.784-50.048L282.624 304a38.4 38.4 0 0 0 8.32-25.92l-32.448-190.848c-3.52-20.864 2.752-38.848 17.344-49.344a42.88 42.88 0 0 1 25.472-8.192 57.28 57.28 0 0 1 26.56 7.04l170.176 90.176c6.08 3.2 20.48 3.2 26.56 0l170.112-90.112c18.56-9.856 37.504-9.408 52.032 1.088 14.592 10.496 20.928 28.48 17.408 49.28l-32.512 190.912a37.888 37.888 0 0 0 8.32 25.92l137.664 135.232z"  horiz-adv-x="1024" />

    
    <glyph glyph-name="droplist_brush" unicode="&#59012;" d="M879.04 572.608L702.272 749.44a64 64 0 0 1-90.496-0.192L544.448 681.792l44.8-44.672 0.96 0.192h0.064l176.64-176.576 30.272-30.336 14.848-14.912 66.752 66.752a64 64 0 0 1 0.256 90.368zM325.888 80.64l-13.568 13.632-88.32 88.64-14.08 14.144-40.704 43.392-9.216 9.792v-156.16c0-35.136 28.544-63.68 63.68-63.68h154.24l-11.712 11.2-40.32 39.04z m219.136 511.488l-45.248 45.056-320.128-320.192 45.248-45.248 176.512-176.64 45.184-45.056 318.976 318.976-43.968 46.464-176.576 176.64z"  horiz-adv-x="1024" />

    
    <glyph glyph-name="droplist_trash" unicode="&#59013;" d="M832 608h-128V693.376c0 20.608-16.768 42.624-63.872 42.624H383.872c-47.104 0-63.872-22.016-63.872-42.624V608H192a32 32 0 0 1 0-64h640a32 32 0 1 1 0 64zM384 448a32 32 0 0 0 64 0v-210.56a32 32 0 1 0-64 0V448z m192 0a32 32 0 0 0 64 0v-210.56a32 32 0 1 0-64 0V448z m32 47.168h-384V96c0-20.672 9.984-38.848 25.152-50.56a63.36 63.36 0 0 1 38.848-13.504h448c14.656 0 28.032 5.12 38.848 13.44a63.744 63.744 0 0 1 25.152 50.56V495.232h-192z"  horiz-adv-x="1024" />

    
    <glyph glyph-name="droplist_move" unicode="&#59014;" d="M788.352 352.64l-111.168 153.344 111.168 153.344c12.16 16.768 14.528 35.584 6.4 51.52-8.128 16-24.768 25.152-45.632 25.152H288.064a64 64 0 0 1-64.064-63.808V32a32 32 0 1 1 64 0V275.968h461.12c20.992 0 37.696 9.216 45.824 25.088 8.064 15.808 5.696 34.624-6.592 51.584"  horiz-adv-x="1024" />

    
    <glyph glyph-name="droplist_top" unicode="&#59015;" d="M906.24 537.6L665.6 778.24a46.528 46.528 0 0 1-35.84 15.36c-15.36 0-30.72-5.12-35.84-20.48L409.6 552.96c-168.96-5.12-215.04-97.28-220.16-107.52-10.24-20.48-10.24-40.96 10.24-56.32l122.88-122.88-204.8-204.8c-20.48-20.48-20.48-51.2 0-71.68 10.24-10.24 20.48-15.36 35.84-15.36 15.36 0 25.6 5.12 35.84 15.36l204.8 204.8 122.88-122.88c10.24-10.24 20.48-15.36 35.84-15.36 10.24 0 15.36 0 20.48 5.12 10.24 5.12 97.28 56.32 107.52 220.16l220.16 184.32c15.36 5.12 20.48 20.48 20.48 35.84 0 15.36-5.12 25.6-15.36 35.84"  horiz-adv-x="1024" />

    
    <glyph glyph-name="xiaoxi" unicode="&#59002;" d="M287.278545 407.086545c35.467636 0 64.232727 28.858182 64.232728 64.465455s-28.765091 64.512-64.232728 64.512c-35.421091 0-64.186182-28.858182-64.186181-64.512 0-35.607273 28.765091-64.465455 64.232727-64.465455z m224.721455 0c35.467636 0 64.232727 28.858182 64.232727 64.465455S547.421091 536.064 512 536.064c-35.467636 0-64.232727-28.858182-64.232727-64.512 0-35.607273 28.765091-64.465455 64.232727-64.465455z m224.721455 0c35.421091 0 64.186182 28.858182 64.186181 64.465455s-28.765091 64.512-64.232727 64.512c-35.421091 0-64.186182-28.858182-64.186182-64.512 0-35.607273 28.765091-64.465455 64.232728-64.465455z m-208.663273-290.117818l-211.176727-164.957091c-20.992-16.384-51.246545-12.567273-67.584 8.471273a48.500364 48.500364 0 0 0-10.14691 29.696v126.789818H142.848A96.488727 96.488727 0 0 0 46.545455 213.643636V729.460364C46.545455 782.894545 89.646545 826.181818 142.848 826.181818h738.304C934.353455 826.181818 977.454545 782.894545 977.454545 729.460364v-515.770182a96.488727 96.488727 0 0 0-96.302545-96.721455h-353.093818z"  horiz-adv-x="1024" />

    
    <glyph glyph-name="like-full" unicode="&#59003;" d="M672.023273 704A222.72 222.72 0 0 1 512 636.276364a222.626909 222.626909 0 0 1-160.023273 67.723636C228.538182 704 128 602.763636 128 478.394182c0-52.270545 18.152727-103.237818 52.968727-145.547637l285.928728-293.98109a62.510545 62.510545 0 0 1 90.20509 0l287.744 296.02909a226.862545 226.862545 0 0 1 51.153455 143.499637c0 124.369455-100.491636 225.605818-224.023273 225.605818"  horiz-adv-x="1024" />

    
    <glyph glyph-name="like" unicode="&#59004;" d="M797.184 377.483636l-284.392727-293.981091-284.16 291.979637a162.769455 162.769455 0 0 0-36.631273 102.912c0 89.088 71.819636 161.605818 160.023273 161.605818 53.713455 0 103.842909-27.182545 133.259636-72.145455l26.717091-40.494545 26.717091 40.494545a159.464727 159.464727 0 0 0 133.306182 72.145455c88.203636 0 159.976727-72.517818 159.976727-161.605818 0-37.515636-13.032727-74.053818-34.816-100.910546m-125.207273 326.516364A222.72 222.72 0 0 1 512 636.276364a222.626909 222.626909 0 0 1-160.023273 67.723636C228.538182 704 128 602.763636 128 478.394182c0-52.270545 18.152727-103.237818 52.968727-145.547637l285.928728-293.98109a62.510545 62.510545 0 0 1 90.20509 0l287.744 296.02909a226.862545 226.862545 0 0 1 51.153455 143.499637c0 124.369455-100.491636 225.605818-224.023273 225.605818"  horiz-adv-x="1024" />

    
    <glyph glyph-name="more1" unicode="&#59005;" d="M209.454545 337.454545a69.818182 69.818182 0 1 0 0 139.636364 69.818182 69.818182 0 0 0 0-139.636364z m325.818182 0a69.818182 69.818182 0 1 0 0 139.636364 69.818182 69.818182 0 0 0 0-139.636364z m325.818182 0a69.818182 69.818182 0 1 0 0 139.636364 69.818182 69.818182 0 0 0 0-139.636364z"  horiz-adv-x="1024" />

    
    <glyph glyph-name="share" unicode="&#59006;" d="M428.497455 289.326545a139.636364 139.636364 0 1 0-7.400728 196.701091l121.856 79.453091a104.727273 104.727273 0 1 0 26.763637-38.167272L449.396364 448.977455c10.24-19.456 16.011636-41.565091 16.011636-65.024 0-19.083636-3.863273-38.027636-11.496727-55.528728l175.336727-98.629818a104.727273 104.727273 0 1 0-21.085091-41.518545l-179.665454 101.050181z"  horiz-adv-x="1024" />

    
    <glyph glyph-name="message" unicode="&#59007;" d="M800.023273 192v-17.873455h-184.133818c-29.696 0-61.207273-18.850909-74.938182-44.823272L512 74.565818l-28.951273 54.737455c-13.730909 25.972364-45.242182 44.823273-74.938182 44.823272H223.976727V640h576v-448z m5.306182 512H218.670545c-32.349091 0-58.647273-27.461818-58.647272-61.253818v-471.365818c0-33.792 26.391273-61.253818 58.786909-61.253819h189.300363c5.957818 0 15.732364-5.725091 18.385455-10.752l38.027636-72.005818 2.932364-4.514909c11.170909-14.522182 27.415273-22.853818 44.544-22.853818s33.373091 8.331636 44.544 22.807273l40.96 76.567272a26.391273 26.391273 0 0 0 18.385455 10.705455h189.44c32.349091 0 58.647273 27.508364 58.647272 61.300364V642.746182c0 33.745455-26.298182 61.253818-58.647272 61.253818z"  horiz-adv-x="1024" />

    
    <glyph glyph-name="top" unicode="&#59008;" d="M546.164364 641.396364l220.532363-250.274909c11.636364-13.172364 14.196364-31.185455 6.749091-47.01091a44.637091 44.637091 0 0 0-40.96-25.6H651.636364v-192.279272C651.636364 88.715636 620.311273 58.181818 581.818182 58.181818h-139.636364c-38.493091 0-69.818182 30.533818-69.818182 68.049455V318.557091H291.514182a44.637091 44.637091 0 0 0-40.96 25.6 42.682182 42.682182 0 0 0 6.749091 47.010909L477.835636 641.396364A45.568 45.568 0 0 0 512 656.756364c13.172364 0 25.6-5.585455 34.164364-15.36zM418.909091 363.892364v-237.661091c0-12.474182 10.472727-22.667636 23.272727-22.667637h139.636364c12.8 0 23.272727 10.193455 23.272727 22.667637V363.892364h124.229818L512 610.583273l-217.320727-246.690909H418.909091zM768 664.436364H256A22.946909 22.946909 0 0 0 232.727273 687.150545C232.727273 699.717818 243.106909 709.818182 256 709.818182h512c12.893091 0 23.272727-10.146909 23.272727-22.667637 0-12.567273-10.379636-22.714182-23.272727-22.714181z"  horiz-adv-x="1024" />

    
    <glyph glyph-name="drop-down" unicode="&#58880;" d="M510.610286 69.851429a43.666286 43.666286 0 0 0-17.627429 3.730285L25.526857 279.844571a43.885714 43.885714 0 0 0 35.401143 80.164572l449.682286-198.436572 449.755428 198.436572a43.885714 43.885714 0 0 0 35.401143-80.164572l-467.382857-206.262857a43.958857 43.958857 0 0 0-17.773714-3.657143z m0 343.771428a43.739429 43.739429 0 0 0-17.627429 3.657143L25.526857 623.542857A43.885714 43.885714 0 0 0 60.928 703.634286L510.537143 505.270857l449.755428 198.436572a43.885714 43.885714 0 0 0 35.401143-80.164572l-467.382857-206.262857a43.52 43.52 0 0 0-17.773714-3.657143z"  horiz-adv-x="1024" />

    
    <glyph glyph-name="xingzhuang" unicode="&#58906;" d="M512 896c282.7776 0 512-229.2224 512-512s-229.2224-512-512-512S0 101.2224 0 384 229.2224 896 512 896zM419.328 139.264c13.568-14.3872 36.352-15.104 50.7904-1.536l235.3152 220.16a35.6864 35.6864 0 0 1 0.1024 52.224l-235.3152 220.16a35.9936 35.9936 0 0 1-50.7904-1.536 35.84 35.84 0 0 1 1.5872-50.7392L628.2752 384l-207.36-194.048a35.84 35.84 0 0 1-1.536-50.688z"  horiz-adv-x="1024" />

    
    <glyph glyph-name="moban" unicode="&#58905;" d="M336.099556 779.946667c13.198222 0 24.462222-11.207111 24.462222-24.405334v-741.603555c0-13.198222-11.264-24.462222-24.462222-24.462222h-195.697778a24.860444 24.860444 0 0 0-24.405334 24.462222V755.484444c0 13.198222 11.264 24.462222 24.462223 24.462223h195.697777z m0 73.386666h-195.697778C86.698667 853.333333 42.666667 809.358222 42.666667 755.541333v-741.603555c0-53.816889 43.975111-97.848889 97.792-97.848889h195.697777c53.76 0 97.735111 44.032 97.735112 97.848889V755.484444c0 53.816889-43.975111 97.792-97.792 97.792z m547.726222-72.248889c13.198222 0 24.462222-11.207111 24.462222-24.462222v-116.792889c0-13.198222-11.264-24.462222-24.462222-24.462222H609.848889a24.860444 24.860444 0 0 0-24.462222 24.462222V756.622222c0 13.198222 11.264 24.462222 24.462222 24.462222h273.92z m0 73.386667H609.848889c-53.76 0-97.792-44.032-97.792-97.848889v-116.792889c0-53.816889 44.032-97.848889 97.792-97.848889h273.92c53.76 0 97.735111 44.032 97.735111 97.848889V756.622222c0 53.76-43.975111 97.735111-97.735111 97.735111z m0-465.92c13.198222 0 24.462222-11.264 24.462222-24.462222v-350.151111c0-13.198222-11.264-24.462222-24.462222-24.462222H609.848889a24.860444 24.860444 0 0 0-24.462222 24.462222V364.088889c0 13.198222 11.264 24.462222 24.462222 24.462222h273.92z m0 73.329778H609.848889c-53.76 0-97.792-44.032-97.792-97.848889v-350.094222c0-53.816889 44.032-97.848889 97.792-97.848889h273.92c53.76 0 97.735111 44.032 97.735111 97.848889V364.088889c0 53.76-43.975111 97.792-97.735111 97.792z"  horiz-adv-x="1024" />

    
    <glyph glyph-name="qingkong" unicode="&#58904;" d="M789.312-11.328h-40.96 16.256a26.24 26.24 0 0 1 24.704 26.24v-26.24z m-580.096 0.256v40.896-16.192a26.24 26.24 0 0 1 26.24-24.704h-26.24zM43.2 724.928c0-22.656 18.304-41.024 40.96-41.024h838.144a40.96 40.96 0 1 1 0 81.984H84.224a41.152 41.152 0 0 1-41.024-40.96zM532.672 855.296H481.28a40.96 40.96 0 0 1-40.96-40.96v-89.536c0-22.592 18.304-40.96 40.96-40.96h51.392a40.96 40.96 0 0 1 41.024 40.96v89.6a40.96 40.96 0 0 1-40.96 40.96zM391.808 604.16a40.96 40.96 0 0 1-40.96-40.96v-458.112a40.96 40.96 0 1 1 81.92 0V563.2a41.024 41.024 0 0 1-40.96 40.96z m215.168 0a40.96 40.96 0 0 1-40.96-40.96v-458.112a40.96 40.96 0 1 1 81.984 0V563.2a41.024 41.024 0 0 1-40.96 40.96zM187.712-92.608h621.312c34.56 3.2 61.696 32.32 61.696 67.84v0.448h0.064V563.2a40.96 40.96 0 1 1-81.984 0v-573.888H209.792V725.952a40.96 40.96 0 1 1-81.984 0v-754.944c2.112-33.024 27.52-59.712 59.904-63.616z"  horiz-adv-x="1024" />

    
    <glyph glyph-name="qingkong-PC" unicode="&#58903;" d="M789.333333-11.264h-40.96 16.213334a26.197333 26.197333 0 0 1 24.746666 26.197333v-26.197333z m-580.096 0.170667v40.96-16.213334c0.768-13.824 12.202667-24.746667 26.197334-24.746666h-26.197334zM43.178667 724.906667c0-22.613333 18.346667-40.96 40.96-40.96h838.144a40.96 40.96 0 1 1 0 81.92H84.224a41.130667 41.130667 0 0 1-40.96-40.96zM532.736 855.296H481.28a40.96 40.96 0 0 1-40.96-40.96v-89.6c0-22.528 18.261333-40.96 40.96-40.96h51.456a40.96 40.96 0 0 1 40.96 40.96V814.421333a40.96 40.96 0 0 1-40.96 40.96zM391.68 604.074667a40.96 40.96 0 0 1-40.96-40.96V104.96a40.96 40.96 0 1 1 81.92 0V563.2a40.96 40.96 0 0 1-40.96 40.96z m215.210667 0a40.96 40.96 0 0 1-40.96-40.96V104.96a40.96 40.96 0 1 1 81.92 0V563.2a40.96 40.96 0 0 1-40.96 40.96zM187.733333-92.586667h621.226667a68.096 68.096 0 0 1 61.781333 67.754667V563.2a40.96 40.96 0 1 1-81.92 0v-573.866667H209.834667V725.930667a40.96 40.96 0 1 1-82.005334 0v-754.944c2.048-33.024 27.477333-59.733333 59.904-63.573334z"  horiz-adv-x="1024" />

    
    <glyph glyph-name="shijian_line" unicode="&#58902;" d="M951.231792 120.88432a38.397408 38.397408 0 1 0-65.872887 39.591995 435.170626 435.170626 0 1 1-149.83522-149.83522 38.397408 38.397408 0 0 0 39.506667-65.872887 511.965442 511.965442 0 1 0 176.20144 176.20144zM292.844233 219.181685L473.568034 399.905486V614.419007a38.397408 38.397408 0 0 0 76.794817 0V384.034558a38.397408 38.397408 0 0 0-11.26324-27.134169l-191.987041-191.987041a38.397408 38.397408 0 1 0-54.268337 54.268337z"  horiz-adv-x="1024" />

    
    <glyph glyph-name="iconwenjianxiazai" unicode="&#58901;" d="M1005.312 430.2848a245.2992 245.2992 0 0 1-52.736 78.2336 245.1968 245.1968 0 0 1-100.7104 60.928 371.8144 371.8144 0 0 1-104.2432 138.5984 368.64 368.64 0 0 1-235.264 84.48 368.7936 368.7936 0 0 1-233.6768-83.2A371.968 371.968 0 0 1 171.9296 567.296a267.008 267.008 0 0 1-96.8192-61.1328 243.2512 243.2512 0 0 1-73.3696-173.4656c0-35.1232 7.5264-69.1712 22.3744-101.1712 14.0288-30.1568 33.8432-57.0368 58.9824-79.9232a269.568 269.568 0 0 1 132.096-65.4336c4.8128-1.536 9.728-2.304 14.7968-2.4064h0.9728a51.9168 51.9168 0 0 1 0 103.8336h-0.8192V189.44c-71.168 15.36-124.16 73.6768-124.16 143.2576 0 76.7488 64.512 139.776 146.7392 146.5344a265.7792 265.7792 0 0 0 519.936-2.9696 141.9776 141.9776 0 0 0 23.7056-282.624v-0.8192a51.9168 51.9168 0 0 1 0-103.8336v-0.1024l1.1776 0.1024c2.9696 0 5.9392 0.3072 8.9088 0.8192a245.248 245.248 0 0 1 146.176 70.5536 245.248 245.248 0 0 1 72.0896 174.08c0 33.1776-6.5536 65.4336-19.4048 95.8464zM330.9568 79.872l139.264-139.264a49.152 49.152 0 0 1 37.12-14.2336 49.152 49.152 0 0 1 37.0688 14.2848l139.264 139.264a49.3568 49.3568 0 0 1 0 69.632 49.408 49.408 0 0 1-69.632 0l-55.1424-55.1424V327.168a49.3568 49.3568 0 0 1-49.2544 49.2544 49.3568 49.3568 0 0 1-49.2032-49.2544v-237.5168l-59.8528 59.904a49.408 49.408 0 0 1-69.632 0 49.408 49.408 0 0 1 0-69.632z"  horiz-adv-x="1025" />

    
    <glyph glyph-name="iconwenjianchakan" unicode="&#58900;" d="M512 445.44c-23.552 0-43.5712-8.2944-60.2112-24.832a81.5104 81.5104 0 0 1-24.9344-59.9552c0-23.3984 8.2944-43.4176 24.9344-59.9552 16.64-16.5888 36.6592-24.832 60.2112-24.832 23.5008 0 43.52 8.2944 60.2112 24.832a81.408 81.408 0 0 1 24.9344 59.904c0 23.3984-8.2944 43.4176-24.9344 60.0064A82.2784 82.2784 0 0 1 512 445.3888z m0 84.736c47.0016 0 87.1424-16.5376 120.4736-49.7152 33.2288-33.1264 49.8688-73.1136 49.8688-119.9104 0-46.7968-16.64-86.784-49.8688-119.9104-33.3312-33.1264-73.472-49.664-120.4736-49.664a164.4544 164.4544 0 0 0-120.4736 49.664 163.072 163.072 0 0 0-49.92 119.9104c0 46.7968 16.64 86.784 49.92 119.9104A164.4544 164.4544 0 0 0 512 530.176z m0 127.1808c-31.0784 0-61.5424-4.096-91.5456-12.288a380.928 380.928 0 0 1-80.9472-31.5904c-24.064-12.9024-47.616-28.5696-70.5536-46.8992-22.9888-18.2784-42.8544-36.3008-59.5968-54.1184-17.152-18.2784-33.4336-37.376-48.7424-57.2928-15.7184-20.4288-28.2624-37.888-37.5808-52.5312-9.1648-14.336-17.92-28.8768-26.2656-43.7248 8.3456-14.6432 17.152-29.0304 26.2656-43.1616 9.3696-14.4896 21.9136-31.7952 37.5808-52.0192 15.3088-19.6608 31.5904-38.6048 48.7424-56.6272 16.7936-17.5616 36.608-35.328 59.5968-53.4528 22.9376-18.1248 46.4384-33.5872 70.5536-46.3872 24.064-12.8 50.9952-23.2448 80.9472-31.2832a350.1056 350.1056 0 0 1 183.04 0.1536 386.6624 386.6624 0 0 1 80.9984 31.488c24.064 12.8 47.616 28.3136 70.5536 46.5408 22.9376 18.176 42.8032 36.1472 59.5456 53.8112 17.2032 18.176 33.4336 37.2224 48.7424 56.9856 15.7184 20.3264 28.2624 37.7344 37.5808 52.3264 9.1136 14.2848 17.92 28.7744 26.3168 43.4176a739.2256 739.2256 0 0 1-63.8976 95.744 757.0432 757.0432 0 0 1-48.7424 56.9856 571.7504 571.7504 0 0 1-59.5456 53.8624 466.0224 466.0224 0 0 1-70.5536 46.5408 388.1984 388.1984 0 0 1-80.9984 31.488A346.112 346.112 0 0 1 512 657.5616v-0.2048z m0 84.8384c46.336 0 91.4432-7.0144 135.2192-21.0432 43.8272-13.9776 82.2272-32.256 115.2512-54.6304 32.9728-22.4256 64.2048-47.2576 93.3888-74.3936 29.1328-27.136 53.6576-54.3232 73.472-81.5104 19.8656-27.136 37.0688-51.968 51.6096-74.3936 14.5408-22.3744 25.2416-40.5504 32.1024-54.4768l9.984-21.1968-6.2976-13.4144c-2.6624-5.632-8.96-17.152-18.8416-34.4576-9.9328-17.4592-20.48-34.6112-31.6416-51.3536-11.1616-16.896-25.9072-36.8128-44.1856-59.648-17.8176-22.272-36.7104-43.5712-56.7296-63.8976-19.5072-19.7632-42.6496-39.7312-69.376-59.7504-26.7776-20.0704-54.1184-37.1712-82.2272-51.2a470.8864 470.8864 0 0 0-94.6176-34.4576 440.5248 440.5248 0 0 0-242.3808 7.6288c-43.8272 14.0288-82.2272 32.1536-115.2512 54.528a780.8512 780.8512 0 0 0-93.3376 73.8816 565.9136 565.9136 0 0 0-73.5744 80.9472A1680.4864 1680.4864 0 0 0 43.008 283.392a523.1104 523.1104 0 0 0-32.1024 54.6816l-9.984 20.8384c1.536 3.328 3.584 7.7824 6.2976 13.4144 2.6624 5.632 8.96 17.2032 18.8416 34.6624 9.9328 17.5104 20.48 34.6624 31.5904 51.5072 11.2128 16.896 25.9584 36.864 44.2368 59.904 17.7664 22.4256 36.7104 43.8784 56.7296 64.3072a638.464 638.464 0 0 0 69.376 59.904c26.7264 20.224 54.1184 37.376 82.176 51.5072a465.5104 465.5104 0 0 0 94.72 34.6624A431.104 431.104 0 0 0 512 742.1952z"  horiz-adv-x="1024" />

    
    <glyph glyph-name="toupiao1" unicode="&#58898;" d="M400.5888-21.1968a86.9376 86.9376 0 0 0-61.5424 25.344l-44.032 44.032c-19.2 19.4048-22.784 49.3056-8.704 71.3728a31.232 31.232 0 0 1-43.1616 43.008c-21.9136-14.08-51.9168-10.4448-71.168 8.6016l-44.032 44.1344a87.1424 87.1424 0 0 0 0 123.1872l429.6704 429.7216a87.3984 87.3984 0 0 0 123.1872 0l43.9808-43.9808c19.0464-19.0464 22.8352-48.9984 8.9088-71.168a31.0784 31.0784 0 0 1 4.2496-38.8608c10.3936-10.1888 26.4192-11.9296 38.8096-4.2496 21.8112 14.0288 51.968 10.24 71.168-8.8064l43.9296-43.9808a87.04 87.04 0 0 0-0.0512-123.2896l-429.6192-429.6192a86.7328 86.7328 0 0 0-61.5936-25.4464z m-44.3392 113.6128l35.4304-35.4816a12.8 12.8 0 0 1 17.7664 0l429.7216 429.7216a12.4928 12.4928 0 0 1 0.0512 17.7152l-35.584 35.584a104.9088 104.9088 0 0 0-118.4256 21.5552 105.0624 105.0624 0 0 0-21.6064 118.4768l-35.5328 35.4816a12.6976 12.6976 0 0 1-17.8176-0.0512l-429.6192-429.6192a12.5952 12.5952 0 0 1 0-17.7664l35.5328-35.5328a106.9056 106.9056 0 0 0 118.4256-21.504c31.3344-31.1296 39.936-78.4384 21.6576-118.5792zM205.9776 223.744c-0.3584-0.4096-0.768-0.4096-1.024-0.768-0.3584-0.4096 0.6656 0.3584 1.024 0.768z m613.4272 321.3824c-0.3584-0.3584-0.768-0.768-1.0752-0.768-0.3584 0 0.7168 0.4096 1.0752 0.768zM468.0704 515.6352a37.12 37.12 0 0 0-26.4192 11.008l-18.432 18.4832a37.2736 37.2736 0 0 0 52.8384 52.5824l18.432-18.4832a37.2736 37.2736 0 0 0-26.4192-63.5904z m123.0336-123.0336a37.1712 37.1712 0 0 0-26.368 10.9568l-37.4784 37.376a37.2736 37.2736 0 1 0 52.736 52.736l37.4784-37.376a37.2736 37.2736 0 0 0-26.368-63.6928z m103.936-103.936a37.1712 37.1712 0 0 0-26.3168 10.9056l-18.4832 18.432a37.2736 37.2736 0 1 0 52.736 52.736l18.4832-18.4832a37.2736 37.2736 0 0 0-26.3168-63.6416h-0.0512z"  horiz-adv-x="1024" />

    
    <glyph glyph-name="xuanze" unicode="&#58897;" d="M502.690909 861.277091L155.648 479.511273H849.92L502.690909 861.184z m0-954.554182L849.92 288.581818H155.461818l347.229091-381.858909z"  horiz-adv-x="1024" />

    
    <glyph glyph-name="xiangqingpaixu" unicode="&#58895;" d="M352.170667-66.304a42.154667 42.154667 0 0 0-41.984 41.984v816.64c0 23.04 18.858667 41.984 41.984 41.984 23.04 0 41.984-18.858667 41.984-41.984v-816.64c0-23.04-18.858667-41.984-41.984-41.984z m27.050666 9.728a42.154667 42.154667 0 0 0-59.136 5.12L74.069333 241.834667a42.154667 42.154667 0 0 0 5.12 59.221333 42.154667 42.154667 0 0 0 59.136-5.12l245.930667-293.205333a42.069333 42.069333 0 0 0-5.034667-59.221334zM671.829333 834.304c23.04 0 41.984-18.858667 41.984-41.984v-816.64c0-23.04-18.858667-41.984-41.984-41.984a42.154667 42.154667 0 0 0-41.984 41.984v816.64c0 23.04 18.858667 41.984 41.984 41.984z m-27.050666-9.728a42.154667 42.154667 0 0 0 59.136-5.12l245.930666-293.205333a42.154667 42.154667 0 0 0-5.12-59.221334 42.154667 42.154667 0 0 0-59.136 5.12L639.658667 765.44a42.154667 42.154667 0 0 0 5.12 59.221333z"  horiz-adv-x="1024" />

    
    <glyph glyph-name="zhiding" unicode="&#58893;" d="M333.2096 290.4064h384.2048v-42.8032H333.2096v42.8032z m-42.8032 420.352H414.72v-62.5664H290.4064v62.464z m42.8032-498.4832h384.2048v-43.52H333.2096v43.52z m295.8336 498.4832h125.0304v-62.5664H629.0432v62.464z m-169.3696 0h124.5184v-62.5664H459.6736v62.464zM1625.1904 896H115.712C52.1216 896 0 844.1856 0 780.288v-697.0368c0-63.6928 51.712-115.712 115.6096-115.712h1509.6832c63.488 0 115.5072 51.8144 115.5072 115.712V780.288A115.712 115.712 0 0 1 1625.1904 896z m-478.72-158.72h405.2992v-49.0496h-196.608l-21.7088-91.7504h187.6992v-325.632h-52.4288V547.4304H1206.272v-279.4496h-52.224V596.48h126.976l19.1488 91.8528h-153.6V737.28z m-903.0656 10.1376h556.9536v-151.552h-46.2848V611.328H290.4064v-15.6672h-47.0016v151.552z m615.424-618.0864H184.32v39.424h101.376V483.6352H493.568v44.032H200.704v38.1952h293.0688v36.0448H542.72v-36.0448h300.6464v-38.0928H542.6176v-44.1344h222.4128v-314.88h93.7984v-39.424z m184.32 85.7088c0-53.9648-27.8528-80.896-83.6608-80.896-23.04 0-41.6768 0.4096-55.7056 1.2288a432.128 432.128 0 0 1-10.9568 60.5184c20.8896-5.0176 42.3936-7.4752 64.6144-7.4752 21.8112 0 32.5632 10.4448 32.5632 31.3344v451.584H880.64V720.896h252.928v-49.664h-90.4192V215.04h0.1024z m472.576-110.1824a2409.2672 2409.2672 0 0 1-191.0784 142.7456 158.9248 158.9248 0 0 0-14.9504-24.576c-37.6832-51.6096-102.7072-91.9552-195.1744-120.9344a510.1568 510.1568 0 0 1-32.6656 48.9472c85.7088 24.576 146.3296 58.4704 181.6576 101.9904 31.232 40.8576 46.8992 102.5024 46.8992 185.0368V514.048h52.3264v-74.752c0-56.7296-6.144-104.96-18.3296-144.896 76.5952-48.9472 146.432-96.9728 209.408-144.0768l-38.0928-45.6704zM333.2096 446.8736h384.2048v-42.8032H333.2096v42.8032z m0-78.2336h384.2048v-42.8032H333.2096V368.64z"  horiz-adv-x="1740" />

    
    <glyph glyph-name="more" unicode="&#58891;" d="M568.888889-99.555556c333.767111 0 540.444444 137.557333 540.444444 418.702223C1109.333333 621.909333 867.441778 867.555556 568.888889 867.555556S28.444444 621.909333 28.444444 319.146667c0-281.144889 206.677333-418.702222 540.444445-418.702223z m0 56.888889c-306.062222 0-483.555556 118.101333-483.555556 361.813334C85.333333 590.734222 301.909333 810.666667 568.888889 810.666667s483.555556-219.932444 483.555555-491.52c0-243.712-177.493333-361.813333-483.555555-361.813334zM853.333333 239.047111c0-17.749333-8.533333-26.624-25.429333-26.624h-136.192v-145.066667c0-16.497778-7.281778-24.689778-21.902222-24.689777-17.351111 0-26.055111 8.248889-26.055111 24.689777v145.066667H494.592l-1.137778-145.066667c0-16.497778-7.566222-24.689778-22.528-24.689777-17.351111 0-26.055111 8.248889-26.055111 24.689777l1.137778 145.066667H309.930667c-16.952889 0-25.429333 8.874667-25.429334 26.624 0 16.896 8.533333 25.372444 25.429334 25.372445h136.192V389.12H309.873778C292.977778 389.176889 284.444444 398.904889 284.444444 418.360889c0 15.189333 8.533333 22.755556 25.429334 22.755555h136.192v145.066667c0 16.952889 7.907556 25.372444 23.665778 25.372445 16.554667 0 24.860444-8.419556 24.860444-25.315556v-145.066667h150.357333l-1.137777 145.066667c0 15.189333 7.054222 22.755556 21.276444 22.755556 17.749333 0 26.624-7.566222 26.624-22.755556v-145.066667h136.192c14.222222 0 21.276444-8.874667 21.276444-26.624 0-16.896-7.111111-25.372444-21.276444-25.372444h-136.192v-124.757333h136.192c16.952889 0 25.429333-8.476444 25.429333-25.372445z m-209.578666 25.372445V389.12H494.592l-1.137778-124.757333h150.300445z"  horiz-adv-x="1137" />

    
    <glyph glyph-name="hot" unicode="&#58890;" d="M568.888889-99.555556c333.767111 0 540.444444 137.557333 540.444444 418.702223C1109.333333 621.909333 867.441778 867.555556 568.888889 867.555556S28.444444 621.909333 28.444444 319.146667c0-281.144889 206.677333-418.702222 540.444445-418.702223z m0 56.888889c-306.062222 0-483.555556 118.101333-483.555556 361.813334C85.333333 590.734222 301.909333 810.666667 568.888889 810.666667s483.555556-219.932444 483.555555-491.52c0-243.712-177.493333-361.813333-483.555555-361.813334zM723.057778 577.422222c7.395556 0 15.36-1.706667 23.324444-5.12 7.395556-3.413333 13.653333-8.533333 18.773334-15.36 3.413333-7.964444 5.688889-17.635556 5.688888-28.444444 0-11.946667-9.102222-47.786667-26.737777-107.52-11.946667-42.097778-18.773333-70.542222-19.911111-85.333334 0-9.671111 3.413333-14.222222 10.24-14.222222 15.928889 0 31.857778 1.706667 47.217777 5.12 13.653333 2.844444 21.617778 4.551111 24.462223 4.551111 7.964444-0.568889 11.946667-7.964444 12.515555-22.755555 0-10.24-3.413333-17.066667-9.671111-21.048889-21.048889-7.964444-50.631111-11.946667-89.315556-11.946667-15.36 0-26.737778 3.982222-34.133333 13.084445-6.826667 7.964444-10.24 19.911111-10.24 35.271111 0 18.204444 5.688889 49.493333 18.204445 92.728889 17.066667 60.302222 25.6 96.711111 25.6 108.657777 0 5.688889-3.413333 8.533333-9.671112 9.102223-15.928889 0-34.702222-1.706667-56.32-3.982223-5.688889-13.653333-10.808889-27.875556-16.497777-43.235555l-19.911111-55.182222c3.413333-1.706667 7.395556-2.844444 11.377777-3.982223 9.102222-3.413333 17.066667-5.12 25.031111-6.257777 1.706667 0 3.413333-0.568889 5.688889-0.568889 1.706667-0.568889 2.844444-0.568889 3.982223-0.568889 5.12-2.275556 7.964444-5.688889 7.964444-11.377778 0-3.413333-1.137778-7.964444-2.275556-13.084444-2.275556-6.257778-4.551111-10.808889-7.964444-13.653334a17.635556 17.635556 0 0 0-14.791111-6.826666c-4.551111 0-11.377778 2.275556-21.617778 6.826666-6.826667 2.275556-13.653333 5.688889-21.617778 10.24-4.551111-12.515556-8.533333-23.893333-11.946666-33.564444-10.808889-32.426667-18.773333-56.888889-23.324445-73.955556-2.275556-11.377778-8.533333-17.066667-19.342222-17.066666-6.826667 0-13.653333 4.551111-21.617778 14.791111s-11.377778 18.773333-11.377778 25.6c0 3.413333 1.137778 7.395556 3.413334 11.946666 2.275556 3.413333 5.12 9.102222 9.671111 17.066667 4.551111 9.102222 14.791111 35.271111 31.857778 77.937778l-13.653334 7.395555c-8.533333 4.551111-13.653333 7.395556-14.791111 9.102223-3.982222 2.275556-5.688889 5.688889-5.688889 10.24 0 5.688889 2.275556 10.808889 7.964445 16.497777 3.982222 2.275556 7.964444 3.982222 11.946666 3.982223 1.706667 0 7.964444-2.844444 18.204445-7.964445l9.102222-4.551111 26.168889 72.817778-9.102222-1.137778c-14.791111-2.844444-27.306667-3.982222-37.546667-3.982222-5.688889 0-10.808889 2.275556-15.928889 7.395555-5.12 4.551111-7.395556 11.377778-7.395555 19.342223 0 5.688889 2.275556 10.808889 7.395555 14.791111 3.413333 1.137778 6.826667 2.275556 9.671111 3.982222 7.964444 0.568889 23.893333 2.275556 47.217778 5.12 7.395556 1.137778 15.36 1.706667 23.324445 2.844444 4.551111 11.377778 8.533333 23.324444 13.084444 35.271112 1.137778 3.413333 2.844444 7.964444 5.12 13.653333 1.137778 5.12 2.275556 8.533333 3.413333 10.24 2.844444 9.102222 8.533333 14.222222 17.635556 14.222222s17.635556-3.413333 26.168889-9.102222c7.964444-5.688889 12.515556-11.946667 12.515555-18.773333 0-3.413333-1.706667-6.826667-4.551111-9.671112-3.413333-3.413333-6.257778-7.395556-9.671111-13.084444-2.844444-5.12-5.688889-11.377778-8.533333-18.204444 17.066667 1.137778 34.133333 1.706667 51.2 1.706666z m-209.351111-30.72c0-8.533333-1.137778-15.36-2.275556-21.048889-1.706667-5.688889-5.12-7.964444-10.24-7.964444-3.982222 0-9.671111 0-17.635555 0.568889h-19.342223c-6.257778 0-13.653333-0.568889-21.617777-0.568889L441.457778 457.955556c0.568889 0 1.706667 0.568889 2.844444 1.137777 21.617778 7.395556 35.84 11.377778 41.528889 11.377778 11.377778-0.568889 19.342222-3.982222 23.324445-10.24 0-13.653333-2.275556-21.048889-5.688889-23.324444-0.568889-1.137778-7.395556-3.413333-21.048889-6.826667-13.653333-4.551111-27.875556-9.671111-42.097778-16.497778v-9.102222c0-31.857778 1.137778-59.733333 4.551111-84.764444 0.568889-5.688889 2.275556-11.946667 5.12-18.204445 1.137778-3.413333 2.275556-7.395556 3.982222-10.808889 1.137778-3.982222 2.275556-7.964444 2.275556-12.515555 0-5.688889-2.844444-9.671111-7.395556-12.515556-4.551111-3.413333-9.671111-4.551111-14.222222-4.551111-26.737778 0-39.822222 13.653333-39.822222 42.097778v42.666666c1.137778 13.084444 1.706667 27.875556 1.706667 44.942223-8.533333-4.551111-17.066667-9.671111-25.031112-14.791111-7.964444-4.551111-17.635556-10.808889-29.013333-19.911112-14.222222 4.551111-21.617778 17.635556-22.755555 38.684445 0 5.688889 15.36 15.928889 46.648888 30.151111 10.24 5.12 20.48 9.671111 30.151112 14.222222V515.982222c-15.928889-1.137778-31.288889-2.844444-46.08-5.12a46.648889 46.648889 0 0 0-11.377778-2.275555c-5.688889 0-10.808889 3.413333-14.791111 10.808889a46.023111 46.023111 0 0 0-5.688889 22.186666c0 5.12 2.275556 8.533333 7.395555 9.671111 22.755556 2.275556 46.08 4.551111 69.973334 6.257778-0.568889 5.688889-1.137778 10.24-1.137778 13.653333-0.568889 9.102222-1.706667 17.066667-2.844445 24.462223-1.706667 6.826667-2.275556 11.946667-2.275555 15.36 0 5.688889 4.551111 12.515556 13.653333 19.342222 9.102222 7.395556 17.066667 11.377778 22.755556 11.377778 5.12 0 10.808889-1.706667 17.066666-5.12 6.257778-3.413333 9.671111-7.395556 9.671112-11.946667 0-2.275556-1.137778-6.257778-3.413334-11.946667-2.275556-6.257778-3.982222-14.222222-5.12-23.893333-1.137778-7.964444-1.137778-18.204444-1.137778-29.582222h18.773334c6.826667 0 16.497778-0.568889 29.582222-0.568889 12.515556 0 19.911111-3.982222 22.186667-11.946667z m296.96-391.395555c0-5.688889-2.844444-12.515556-8.533334-19.342223-5.12-5.688889-14.222222-9.671111-26.737777-11.377777-2.844444 0-4.551111 1.706667-5.12 5.12-1.706667 7.395556-7.395556 18.204444-17.635556 32.995555a141.653333 141.653333 0 0 1-27.306667 34.702222c-9.102222 8.533333-15.928889 13.653333-20.48 15.36a30.833778 30.833778 0 0 1-9.102222 5.12c-2.275556 1.706667-2.844444 4.551111-2.844444 8.533334 0 6.826667 1.706667 13.084444 6.257777 19.342222 4.551111 5.688889 11.377778 9.102222 19.911112 9.102222 7.964444 0 18.204444-5.12 29.582222-14.791111 13.653333-9.671111 27.306667-24.462222 42.097778-43.804444 13.084444-19.342222 19.911111-32.995556 19.911111-40.96z m-296.96-31.288889c-4.551111 0-10.808889 5.688889-18.204445 17.066666-7.964444 11.377778-14.222222 23.893333-18.773333 37.546667-5.688889 13.653333-7.964444 23.893333-7.964445 30.72 0 7.395556 1.706667 13.084444 5.12 17.635556 2.844444 3.413333 7.964444 5.688889 14.791112 6.826666 7.964444 0 14.791111-2.275556 21.048888-5.688889 5.688889-3.982222 9.102222-9.102222 10.24-15.36 0-1.706667 0.568889-5.688889 1.706667-11.946666 0.568889-6.257778 2.275556-13.084444 5.12-19.911111l6.826667-14.222223c1.706667-2.275556 3.982222-5.12 7.395555-7.964444 2.844444-2.275556 4.551111-5.688889 4.551111-10.24 0-3.413333-3.413333-7.964444-10.24-14.791111-6.826667-6.257778-13.653333-9.671111-21.617777-9.671111z m-96.711111 84.764444c-3.413333-1.706667-6.257778-3.982222-8.533334-7.395555-11.946667-13.653333-21.048889-29.582222-27.875555-47.217778-3.413333-7.395556-5.688889-14.791111-5.688889-21.617778 0-2.844444 0-6.826667 1.137778-11.946667-3.413333 0-6.826667-0.568889-9.102223-0.568888-15.928889 0-26.168889 3.413333-31.857777 10.24a26.794667 26.794667 0 0 0-9.102223 21.048888c0 4.551111 2.275556 12.515556 7.964445 24.462223 11.377778 21.617778 22.186667 38.684444 33.564444 51.768889 5.688889 7.395556 11.377778 11.946667 15.928889 13.653333 2.844444 1.137778 6.826667 2.275556 11.377778 2.275555 5.688889 0 10.808889-1.706667 15.36-5.12 4.551111-4.551111 7.964444-9.102222 9.102222-13.653333 0.568889-3.413333 1.137778-6.257778 1.137778-7.395555 0-3.413333-1.137778-6.257778-3.413333-8.533334z m216.177777-81.92c-5.688889 0-12.515556 5.688889-20.48 17.066667-8.533333 10.808889-15.36 22.755556-21.048889 35.84-5.688889 13.653333-8.533333 24.462222-8.533333 31.288889 0 7.395556 1.706667 13.084444 5.12 17.066666 2.844444 3.982222 7.964444 6.257778 15.36 7.395556 7.395556 0 14.222222-2.275556 21.048889-5.688889 5.688889-3.982222 8.533333-9.102222 9.671111-15.36 0-1.706667 0.568889-5.688889 2.275556-11.377778 1.137778-6.257778 3.413333-12.515556 7.395555-19.342222 3.413333-6.257778 6.257778-10.808889 8.533334-14.222222 2.275556-2.275556 4.551111-5.12 7.964444-7.964445 2.844444-2.844444 4.551111-6.257778 4.551111-10.24 0-3.413333-3.413333-7.964444-10.24-14.791111-6.826667-6.257778-13.653333-9.671111-21.617778-9.671111z"  horiz-adv-x="1137" />

    
    <glyph glyph-name="new" unicode="&#58888;" d="M568.888889-99.555556c333.767111 0 540.444444 137.557333 540.444444 418.702223C1109.333333 621.909333 867.441778 867.555556 568.888889 867.555556S28.444444 621.909333 28.444444 319.146667c0-281.144889 206.677333-418.702222 540.444445-418.702223z m0 56.888889c-306.062222 0-483.555556 118.101333-483.555556 361.813334C85.333333 590.734222 301.909333 810.666667 568.888889 810.666667s483.555556-219.932444 483.555555-491.52c0-243.712-177.493333-361.813333-483.555555-361.813334zM288.995556 596.081778c0.682667-0.682667 2.730667-1.365333 6.144-1.365334 2.048-1.365333 5.461333-1.365333 9.557333-1.365333 4.096-0.682667 8.192-0.682667 12.970667-0.682667 2.730667 0 30.72 2.048 83.968 6.826667a85.674667 85.674667 0 0 1-12.970667 16.384c-5.461333 5.461333-8.874667 9.557333-11.605333 10.922667-2.730667 1.365333-4.778667 2.048-6.144 2.730666-2.730667 2.730667-3.413333 6.826667-3.413334 12.288 0 9.557333 2.730667 18.432 9.557334 27.306667a32.142222 32.142222 0 0 0 27.306666 12.970667c5.461333 0 11.605333-4.778667 18.432-12.970667 8.192-8.192 16.384-20.48 25.258667-36.864 6.826667-12.970667 10.922667-22.528 12.288-27.989333a477.866667 477.866667 0 0 1 52.565333 4.778666c11.605333 2.048 19.114667 3.413333 21.845334 3.413334 7.509333 0 14.336-1.365333 19.797333-4.096a187.733333 187.733333 0 0 0 19.114667-12.970667 26.680889 26.680889 0 0 0 8.874666-21.162667 22.186667 22.186667 0 0 0-7.509333-17.066666 26.282667 26.282667 0 0 0-19.797333-8.192c-2.048 0-6.144 0-12.288 1.365333-2.730667 0-4.778667 0-6.144 0.682667l-0.682667-1.365334a77.824 77.824 0 0 1-6.826667-12.970666 455.111111 455.111111 0 0 1-19.797333-79.872 45.909333 45.909333 0 0 1-2.048-12.288h0.682667c8.192 0 20.48-0.682667 36.864-0.682667 16.384-0.682667 25.258667-5.461333 27.989333-15.018667 0-11.605333-1.365333-20.48-2.730667-27.306666-2.730667-6.826667-6.826667-9.557333-13.653333-9.557334-4.778667 0-12.288 0-22.528 0.682667H510.862222c-11.605333 0-25.941333-0.682667-42.325333-0.682667-0.682667-4.096-2.048-8.874667-3.413333-15.701333-1.365333-6.144-2.730667-23.210667-2.730667-50.517333 12.288 0.682667 20.48 1.365333 25.258667 2.048 6.826667 0.682667 19.797333 2.730667 39.594666 6.144 6.826667 0 17.749333-4.778667 34.133334-14.336 16.384-10.922667 25.258667-20.48 25.258666-27.306667 0-15.018667-7.509333-23.210667-21.845333-23.210667a109.226667 109.226667 0 0 0-28.672 3.413334c-9.557333 1.365333-18.432 2.730667-27.306667 2.730666-10.922667 0-26.624-0.682667-46.421333-2.048v-80.554666c0-53.248 3.413333-88.064 10.922667-104.448 0-15.018667-2.730667-28.672-8.192-39.594667-5.461333-10.922667-11.605333-16.384-19.797334-16.384-9.557333 0-17.066667 3.413333-22.528 9.557333-10.922667 9.557333-16.384 61.44-16.384 154.965334V269.084444c-33.450667-2.730667-61.44-6.826667-83.968-11.605333l-15.018666-4.778667a37.546667 37.546667 0 0 0-10.922667-2.048c-8.874667 0-17.066667 5.461333-23.893333 17.066667s-10.24 21.162667-10.24 28.672c0 4.096 2.048 6.826667 6.144 7.509333 28.672 4.778667 55.978667 8.874667 80.554666 11.605334 19.114667 1.365333 37.546667 3.413333 56.661334 4.778666l-1.365334 59.392v8.192c-27.306667-2.730667-53.930667-6.826667-79.189333-12.288-10.24-2.730667-17.066667-4.096-19.797333-4.096-6.826667 0-12.288 4.096-17.749334 13.653334a53.987556 53.987556 0 0 0-7.509333 27.989333c0 6.144 2.730667 10.24 9.557333 12.288 19.797333 3.413333 40.277333 6.144 60.757334 8.874667a356.238222 356.238222 0 0 0-17.066667 55.978666c-4.778667 19.114667-7.509333 34.816-7.509333 46.421334a236.259556 236.259556 0 0 0-20.48-2.048 22.584889 22.584889 0 0 0-16.384 7.509333 31.175111 31.175111 0 0 0-10.922667 14.336 36.408889 36.408889 0 0 0-3.413333 17.066667c0 7.509333 4.778667 15.018667 14.336 22.528z m110.592-157.013334c1.365333 0 3.413333 0.682667 5.461333 0.682667 19.114667 1.365333 36.864 2.048 53.248 3.413333 0.682667 8.874667 2.730667 21.162667 5.461333 36.181334 5.461333 27.989333 11.605333 51.882667 17.749334 71.68l-55.296-3.413334-45.056-3.413333 2.048-22.528c0-15.018667 2.048-30.037333 4.778666-45.056 3.413333-16.384 6.144-27.306667 8.192-34.133333a8.248889 8.248889 0 0 1 3.413334-3.413334zM384.568889 190.577778a47.672889 47.672889 0 0 1-8.874667-10.922667c-13.653333-18.432-23.210667-38.912-30.037333-62.805333a85.333333 85.333333 0 0 1-5.461333-28.672c0-3.413333 0-8.192 1.365333-14.336-4.096 0-8.192-0.682667-11.605333-0.682667-18.432 0-30.72 4.096-37.546667 12.288a32.142222 32.142222 0 0 0-10.922667 25.258667c0 5.461333 2.730667 16.384 9.557334 31.402666a377.173333 377.173333 0 0 0 38.912 66.218667c6.826667 9.557333 13.653333 15.018667 19.114666 17.066667a27.761778 27.761778 0 0 0 28.672-2.730667 40.391111 40.391111 0 0 0 8.874667-15.701333c0.682667-3.413333 1.365333-5.461333 1.365333-6.826667a14.791111 14.791111 0 0 0-3.413333-9.557333z m189.781333-20.48c0-10.922667-1.365333-19.114667-4.096-25.941334a35.384889 35.384889 0 0 0-13.653333-17.066666 40.618667 40.618667 0 0 0-18.432-4.096c-1.365333 0-3.413333 2.048-5.461333 5.461333a131.185778 131.185778 0 0 1-11.605334 18.432c-6.826667 9.557333-15.018667 19.114667-23.210666 29.354667l-7.509334 7.509333c-2.730667 2.048-4.778667 4.096-5.461333 6.826667a17.749333 17.749333 0 0 0-6.826667 13.653333c0 5.461333 2.730667 12.288 8.874667 20.48 5.461333 8.192 11.605333 12.288 17.749333 12.288 3.413333 0 8.192-2.730667 13.653334-7.509333l11.605333-11.605334c6.144-6.826667 13.653333-15.018667 23.210667-24.576 8.192-10.922667 13.653333-16.384 15.018666-17.749333l4.096-2.730667c1.365333-1.365333 2.048-2.048 2.048-2.730666z m264.874667 439.637333l-23.210667-6.144c-32.768-7.509333-75.093333-22.528-125.610666-44.373333-0.682667-4.096-2.048-8.192-3.413334-13.653334-3.413333-10.922667-8.874667-47.104-15.701333-109.226666-0.682667-2.730667-0.682667-5.461333-0.682667-8.192 20.48 0 51.2 2.730667 91.477334 8.874666 40.96 6.826667 69.632 10.24 86.016 10.24 10.922667 0 19.797333-4.096 26.624-11.605333 6.144-6.826667 9.557333-13.653333 9.557333-21.162667 0-9.557333-2.730667-16.384-7.509333-20.48-4.778667-6.826667-11.605333-9.557333-20.48-9.557333-12.970667 0.682667-22.528 1.365333-29.354667 1.365333-5.461333 0-11.605333-0.682667-18.432-0.682666 0-2.730667-0.682667-4.778667-0.682667-6.144-2.048-10.922667-3.413333-28.672-3.413333-53.930667-1.365333-25.258667-1.365333-55.978667-1.365333-92.16 0-47.786667 0-80.554667 1.365333-99.669333 0-19.114667 2.730667-40.96 8.192-66.218667 1.365333-5.461333 2.730667-10.24 2.730667-14.336a22.186667 22.186667 0 0 0-6.144-16.384 33.393778 33.393778 0 0 0-17.066667-4.778667c-30.72 0-45.738667 15.018667-45.738667 45.056v150.186667c0 55.296-0.682667 92.842667-0.682666 111.957333-0.682667 19.114667-1.365333 32.085333-2.730667 37.546667-0.682667 1.365333-0.682667 2.048-0.682667 2.730667-31.402667-1.365333-54.613333-2.048-68.266666-2.048-2.730667 0-5.461333 0-8.192 0.682666-4.096-52.565333-5.461333-114.005333-5.461334-183.637333 0-8.874667 0.682667-21.845333 3.413334-38.229333 2.730667-17.749333 6.144-30.72 10.24-39.594667 3.413333-8.192 5.461333-13.653333 5.461333-16.384a23.096889 23.096889 0 0 0-6.826667-17.066667 33.450667 33.450667 0 0 0-19.114666-6.144c-19.114667 0-32.768 6.826667-39.594667 19.114667-8.874667 13.653333-12.970667 44.373333-12.970667 92.842667 0 68.266667 7.509333 180.906667 23.210667 337.92 0 3.413333 0.682667 6.826667 0.682667 9.557333-16.384 5.461333-24.576 15.018667-24.576 30.037333 0 12.288 3.413333 23.210667 10.24 32.085334 7.509333 1.365333 15.018667 2.730667 21.845333 4.778666 20.48 6.826667 44.373333 15.018667 72.362667 25.941334l70.314666 25.941333c17.749333 5.461333 30.72 8.874667 38.912 8.874667 17.066667-8.192 27.306667-17.749333 30.037334-27.306667 0-16.384-2.048-25.258667-4.778667-26.624z"  horiz-adv-x="1137" />

    
    <glyph glyph-name="toupiao" unicode="&#58886;" d="M769.152 502.186667v-207.957334h16.725333c14.336 0 31.061333-4.650667 31.061334-23.125333 0-13.866667-9.557333-23.082667-23.893334-23.082667H219.136c-14.378667 0-23.893333 9.216-23.893333 23.082667 0 20.821333 16.725333 23.125333 31.061333 23.125333h16.725333V502.186667h-23.893333c-28.714667 0-71.765333-39.296-71.765333-64.725334l-47.786667-115.541333v-152.533333c0-25.429333 23.893333-48.554667 50.176-48.554667h710.229333c28.714667 0 50.218667 20.821333 50.218667 48.554667v138.666666l-117.162667 194.133334h-23.893333zM338.688 294.272h334.805333c26.282667 0 47.786667 20.778667 47.786667 46.208V629.333333c0 25.429333-21.504 46.208-47.786667 46.208H338.688c-26.282667 0-47.786667-20.778667-47.786667-46.208v-288.853333c0-25.472 21.504-46.250667 47.786667-46.250667z m24.832 202.24a23.68 23.68 0 0 0 33.493333 0l66.986667-62.421333L628.906667 593.493333a26.666667 26.666667 0 0 0 35.882666 0 24.533333 24.533333 0 0 0 0-34.645333l-186.538666-180.266667c-4.778667-4.608-5.333333-6.016-12.501334-6.016-7.168 0-11.392 5.973333-16.213333 10.666667l-83.626667 80.853333c-11.989333 6.954667-11.989333 23.125333-2.432 32.341334z"  horiz-adv-x="1024" />

    
    <glyph glyph-name="wenzhang" unicode="&#58885;" d="M704.256 884.8896l56.7296-39.7312a51.2 51.2 0 0 0 12.5952-71.2704L249.5488 25.4464a51.2 51.2 0 0 0-10.9568-11.3664L84.224-103.424a25.6 25.6 0 0 0-39.936 28.0064l57.6512 185.2416a51.2 51.2 0 0 0 6.9632 14.1824L632.9344 872.3456a51.2 51.2 0 0 0 71.3216 12.544zM107.1104-102.2464c102.656 56.6784 195.584 88.832 278.528 96.9728 43.9808 4.352 92.3648-3.4304 145.408-23.8592a704 704 0 0 1 385.1264-34.4064l45.312 8.704a38.4 38.4 0 0 1-14.3872 75.4176l-45.3632-8.704a627.2 627.2 0 0 0-343.0912 30.6688c-63.6928 24.4736-123.904 34.2016-180.5312 28.672-94.2592-9.3184-196.9152-44.8512-308.0704-106.1888a38.4 38.4 0 1 1 37.0688-67.2768z"  horiz-adv-x="1024" />

    


  </font>
</defs>
</svg>
