<?xml version="1.0" standalone="no"?>
<!DOCTYPE svg PUBLIC "-//W3C//DTD SVG 1.1//EN" "http://www.w3.org/Graphics/SVG/1.1/DTD/svg11.dtd" >
<!--
2013-9-30: Created.
-->
<svg>
<metadata>
Created by iconfont
</metadata>
<defs>

<font id="iconfont" horiz-adv-x="1024" >
  <font-face
    font-family="iconfont"
    font-weight="500"
    font-stretch="normal"
    units-per-em="1024"
    ascent="896"
    descent="-128"
  />
    <missing-glyph />
    
    <glyph glyph-name="Warning" unicode="&#58888;" d="M512 779.5078125C293.54654504 779.5078125 116.50103544 602.45345496 116.50103544 384.00884795s177.05435755-395.49896456 395.49896456-395.49896457 395.49896456 177.05435755 395.49896456 395.49896457-177.04550961 395.49896456-395.49896456 395.49896455z m0-642.69908913a24.72089756 24.72089756 0 1 0 24.72089756 24.72089679 24.69435374 24.69435374 0 0 0-24.72089756-24.72089679z m24.72089756 123.6133342a24.72089756 24.72089756 0 1 0-49.44179512 0V606.4792277700001a24.72089756 24.72089756 0 0 0 49.44179512 0z"  horiz-adv-x="1024" />

    
    <glyph glyph-name="close" unicode="&#58892;" d="M770.63187959 642.80964442a32.67585221 32.67585221 0 0 1-46.33670603-1e-8l-212.42897339-212.2433149L299.4372273 642.86354532a32.77766468 32.77766468 0 0 1-46.33670655-46.36665114l212.34512788-212.30320463L253.10052074 171.78268313a32.77766468 32.77766468 0 0 1 46.33670656-46.36665116l212.42897287 212.32716093 212.42897339-212.41100643a32.77766468 32.77766468 0 1 1 46.33670603 46.36665116L558.28675223 384.13978864 770.63187959 596.44299327a32.73574194 32.73574194 0 0 1 0 46.36665115z"  horiz-adv-x="1024" />

    
    <glyph glyph-name="info-cirlce" unicode="&#58920;" d="M512.02349316 731.61428833a347.60920718 347.60920718 0 1 1 347.59079652-347.60920719A347.57238588 347.57238588 0 0 1 512.02349316 731.61428833z m-2.04356873-125.19160014a24.44918348 24.44918348 0 1 0-24.44918347-24.44918347 24.43077281 24.43077281 0 0 0 24.44918347 24.37554084z m82.27665616-402.65669029h-164.55331232a24.44918348 24.44918348 0 1 0 0 48.8799556h57.84588334V465.82147427H444.80664962a24.44918348 24.44918348 0 0 0-1e-8 48.8799556h65.17327482a24.43077281 24.43077281 0 0 0 24.44918278-24.44918279v-237.67993554h57.84588406a24.44918348 24.44918348 0 0 0 0-48.8799556z"  horiz-adv-x="1024" />

    
    <glyph glyph-name="manage_fill" unicode="&#59147;" d="M416.096 728.224H223.904A64 64 0 0 1 160 664.32v-192.192a64 64 0 0 1 63.904-63.904h192.192A64 64 0 0 1 480 472.128V664.32a64 64 0 0 1-63.904 63.904M885.088 613.44l-135.904 135.872a64 64 0 0 1-90.368 0L640 730.496 522.912 613.44a63.456 63.456 0 0 1-18.656-45.056 63.456 63.456 0 0 1 18.656-45.312l18.816-18.816L640 405.92l18.816-18.816a63.904 63.904 0 0 1 90.368 0.032l117.088 117.12 18.816 18.784a63.936 63.936 0 0 1 0 90.368M416.096 344.224H223.904A64 64 0 0 1 160 280.32v-192.192a64 64 0 0 1 63.904-63.904h192.192A64 64 0 0 1 480 88.128V280.32a64 64 0 0 1-63.904 63.904M800.096 344.224h-192.192A64 64 0 0 1 544 280.32v-192.192a64 64 0 0 1 63.904-63.904h192.192A64 64 0 0 1 864 88.128V280.32a64 64 0 0 1-63.904 63.904"  horiz-adv-x="1024" />

    
    <glyph glyph-name="qrcode" unicode="&#59357;" d="M468 768H160c-17.7 0-32-14.3-32-32v-308c0-4.4 3.6-8 8-8h332c4.4 0 8 3.6 8 8V760c0 4.4-3.6 8-8 8z m-56-284H192V704h220v-220zM274 558h56c4.4 0 8 3.6 8 8v56c0 4.4-3.6 8-8 8h-56c-4.4 0-8-3.6-8-8v-56c0-4.4 3.6-8 8-8zM468 348H136c-4.4 0-8-3.6-8-8v-308c0-17.7 14.3-32 32-32h308c4.4 0 8 3.6 8 8V340c0 4.4-3.6 8-8 8z m-56-284H192V284h220v-220zM274 138h56c4.4 0 8 3.6 8 8v56c0 4.4-3.6 8-8 8h-56c-4.4 0-8-3.6-8-8v-56c0-4.4 3.6-8 8-8zM864 768H556c-4.4 0-8-3.6-8-8v-332c0-4.4 3.6-8 8-8h332c4.4 0 8 3.6 8 8V736c0 17.7-14.3 32-32 32z m-32-284H612V704h220v-220zM694 558h56c4.4 0 8 3.6 8 8v56c0 4.4-3.6 8-8 8h-56c-4.4 0-8-3.6-8-8v-56c0-4.4 3.6-8 8-8zM888 348h-48c-4.4 0-8-3.6-8-8v-134h-78V340c0 4.4-3.6 8-8 8H556c-4.4 0-8-3.6-8-8v-332c0-4.4 3.6-8 8-8h48c4.4 0 8 3.6 8 8V252h78v-102c0-4.4 3.6-8 8-8h190c4.4 0 8 3.6 8 8V340c0 4.4-3.6 8-8 8zM746 64h-48c-4.4 0-8-3.6-8-8v-48c0-4.4 3.6-8 8-8h48c4.4 0 8 3.6 8 8v48c0 4.4-3.6 8-8 8zM888 64h-48c-4.4 0-8-3.6-8-8v-48c0-4.4 3.6-8 8-8h48c4.4 0 8 3.6 8 8v48c0 4.4-3.6 8-8 8z"  horiz-adv-x="1024" />

    
    <glyph glyph-name="icon_approval_fill" unicode="&#60324;" d="M863.98254 288.004669H703.990662c-53.017494 0-95.995331 42.97886-95.995331 95.995331 0 31.975249 15.632025 60.299341 39.673581 77.746712 53.680597 40.919968 88.319511 105.535615 88.319512 178.24152 0 123.706463-100.284007 223.989447-223.989447 223.989447s-223.989447-100.281961-223.989447-223.989447c0-72.705905 34.638915-137.321552 88.319511-178.24152 24.041556-17.446347 39.673581-45.771463 39.673581-77.746712 0-53.016471-42.97886-95.995331-95.995331-95.995331H160.016437c-35.341926 0-63.996546-28.650527-63.996546-63.996547v-159.991877h831.960218V224.008122c0 35.346019-28.655643 63.996546-63.997569 63.996547zM96.019891 0.018675c0-35.343973 28.65462-63.996546 63.996546-63.996546h703.966103c35.341926 0 63.996546 28.652574 63.996546 63.996546v31.998785H96.019891v-31.998785z"  horiz-adv-x="1024" />

    
    <glyph glyph-name="icon_copyto" unicode="&#60326;" d="M478.863299 275.448702l252.048503 327.20932-328.057641-252.703419a63.995523 63.995523 0 0 0-67.081815-6.833639l-232.429676 113.239064c-31.774681 15.479553-44.983517 53.78702-29.502941 85.561701a63.987337 63.987337 0 0 0 37.527708 32.761148l761.272273 250.495124c33.57263 11.047614 69.747527-7.213285 80.793095-40.786938a63.995523 63.995523 0 0 0 0-40.006156L703.099363-16.391063c-11.045567-33.573653-47.219441-51.834552-80.793095-40.786938a64.00064 64.00064 0 0 0-37.595246 32.894177L471.965192 208.498894a63.995523 63.995523 0 0 0 6.898107 66.949808z"  horiz-adv-x="1024" />

    
    <glyph glyph-name="morenleibietu2" unicode="&#59043;" d="M512 850.823529C254.192941 850.823529 45.176471 641.807059 45.176471 384c0-257.807059 209.016471-466.823529 466.823529-466.823529 257.807059 0 466.823529 209.016471 466.823529 466.823529 0 257.807059-209.016471 466.823529-466.823529 466.823529z m0-30.117647c241.182118 0 436.705882-195.523765 436.705882-436.705882S753.182118-52.705882 512-52.705882 75.294118 142.817882 75.294118 384 270.817882 820.705882 512 820.705882zM693.398588 565.368471c7.860706-9.336471 8.944941-22.558118 3.252706-39.755295a117.067294 117.067294 0 0 0-29.033412-46.230588l-43.279058-43.248941 43.068235-186.849882c0.903529-3.403294-0.210824-6.415059-3.252706-8.854589l-34.424471-25.750588a7.469176 7.469176 0 0 0-5.059764-1.596235 5.360941 5.360941 0 0 0-1.837177 0.301176 7.469176 7.469176 0 0 0-5.662117 4.276706l-74.992942 136.312471-69.511529-69.51153 14.215529-52.043294a8.041412 8.041412 0 0 0-2.16847-8.282353l-25.810824-25.901176a8.372706 8.372706 0 0 0-6.113882-2.409412h-0.542118a9.246118 9.246118 0 0 0-6.445176 3.523765l-50.838588 67.674353-67.674353 50.657882c-1.957647 1.234824-3.102118 3.343059-3.523765 6.144a9.035294 9.035294 0 0 0 2.439529 6.716235l25.750589 26.021648a8.372706 8.372706 0 0 0 6.113882 2.439529c1.084235 0 1.807059-0.090353 2.16847-0.301177l52.043295-14.155294 69.511529 69.481412-136.192 75.113412a9.035294 9.035294 0 0 0-4.577882 6.445176 8.222118 8.222118 0 0 0 2.469647 7.228236l34.394353 34.42447c2.499765 2.349176 5.180235 3.041882 8.101647 2.138353l178.597647-42.676706 42.947764 42.977883a118.151529 118.151529 0 0 0 46.200471 29.033411c17.046588 5.632 30.358588 4.517647 39.664941-3.343058z"  horiz-adv-x="1024" />

    
    <glyph glyph-name="morenleibietu3" unicode="&#59044;" d="M512 850.823529C254.192941 850.823529 45.176471 641.807059 45.176471 384c0-257.807059 209.016471-466.823529 466.823529-466.823529 257.807059 0 466.823529 209.016471 466.823529 466.823529 0 257.807059-209.016471 466.823529-466.823529 466.823529z m0-30.117647c241.182118 0 436.705882-195.523765 436.705882-436.705882S753.182118-52.705882 512-52.705882 75.294118 142.817882 75.294118 384 270.817882 820.705882 512 820.705882zM654.004706 353.882353c-1.837176 0.813176-27.557647 12.047059-60.867765 21.564235a415.804235 415.804235 0 0 1-34.153412 8.252236c16.986353 14.396235 28.009412 35.629176 28.009412 59.602823v57.916235a78.667294 78.667294 0 0 1-157.334588 0v-57.916235c0-24.636235 11.625412-46.411294 29.515294-60.837647-12.016941-2.529882-23.612235-5.601882-34.273882-8.794353-18.492235-5.511529-36.653176-12.047059-54.422589-19.576471-13.763765-5.541647-24.124235-21.022118-24.124235-35.990588v-61.952l0.813177-2.349176c4.457412-13.131294 16.534588-21.985882 30.027294-21.985883h269.643294c15.450353 0 28.521412 11.474824 30.569412 26.804706l0.240941 59.482353c0 14.878118-10.330353 30.298353-23.672471 35.779765"  horiz-adv-x="1024" />

    
    <glyph glyph-name="morenleibietu1" unicode="&#59045;" d="M512 850.823529C254.192941 850.823529 45.176471 641.807059 45.176471 384c0-257.807059 209.016471-466.823529 466.823529-466.823529 257.807059 0 466.823529 209.016471 466.823529 466.823529 0 257.807059-209.016471 466.823529-466.823529 466.823529z m0-30.117647c241.182118 0 436.705882-195.523765 436.705882-436.705882S753.182118-52.705882 512-52.705882 75.294118 142.817882 75.294118 384 270.817882 820.705882 512 820.705882zM704.752941 238.049882l-395.294117 0.210824s-42.556235-1.897412-8.854589 30.117647a210.944 210.944 0 0 0 30.900706 13.462588 52.976941 52.976941 0 0 0-4.577882 21.564235c0 27.587765 20.720941 49.965176 46.260706 49.965177 25.569882 0 46.290824-22.377412 46.290823-49.995294l-0.090353-1.716706 9.035294 1.114353v258.409412c0 17.016471 12.559059 30.448941 29.605647 30.448941h177.332706c17.046588 0 28.912941-13.432471 28.912942-30.418824v-272.926117c20.720941-5.812706 38.550588-12.739765 52.464941-20.48 50.748235-33.852235-11.956706-29.756235-11.956706-29.756236z m-177.392941 285.123765a15.088941 15.088941 0 0 1-15.239529 15.209412h-30.418824a15.088941 15.088941 0 0 1-15.239529-15.209412v-41.863529c0-8.493176 10.511059-15.209412 19.034353-15.209412h26.624a15.088941 15.088941 0 0 1 15.209411 15.209412v41.863529z m0-110.351059a15.088941 15.088941 0 0 1-15.239529 15.209412h-30.418824a15.088941 15.088941 0 0 1-15.239529-15.209412v-41.863529c0-8.463059 10.511059-15.209412 19.034353-15.209412h26.624a15.088941 15.088941 0 0 1 15.209411 15.239529v41.86353z m98.906353 110.351059a15.088941 15.088941 0 0 1-15.239529 15.209412h-30.418824a15.088941 15.088941 0 0 1-15.209412-15.209412v-41.863529c0-8.493176 10.480941-15.209412 19.004236-15.209412h26.624a15.088941 15.088941 0 0 1 15.239529 15.209412v41.863529z m0-110.351059a15.088941 15.088941 0 0 1-15.239529 15.209412h-30.418824a15.088941 15.088941 0 0 1-15.209412-15.209412v-41.863529c0-8.463059 10.480941-15.209412 19.004236-15.209412h26.624a15.088941 15.088941 0 0 1 15.239529 15.239529v41.86353z"  horiz-adv-x="1024" />

    
    <glyph glyph-name="morenleibietu4" unicode="&#59046;" d="M512 850.823529C254.192941 850.823529 45.176471 641.807059 45.176471 384c0-257.807059 209.016471-466.823529 466.823529-466.823529 257.807059 0 466.823529 209.016471 466.823529 466.823529 0 257.807059-209.016471 466.823529-466.823529 466.823529z m0-30.117647c241.182118 0 436.705882-195.523765 436.705882-436.705882S753.182118-52.705882 512-52.705882 75.294118 142.817882 75.294118 384 270.817882 820.705882 512 820.705882zM557.176471 353.882353a10.541176 10.541176 0 0 0 0-21.082353h-34.635295v-9.035294a10.541176 10.541176 0 1 0-21.082352 0v9.035294H466.823529a10.541176 10.541176 0 1 0 0 21.082353h34.635295v24.094118H466.823529a10.541176 10.541176 0 0 0 0 21.082353h30.298353l-0.090353 0.090352-30.117647 30.117648a10.541176 10.541176 0 0 0 14.908236 14.908235l30.117647-30.117647 0.060235-0.120471 0.090353 0.120471 30.117647 30.117647a10.541176 10.541176 0 1 0 14.908235-14.908235l-30.117647-30.117648-0.12047-0.090352H557.176471a10.541176 10.541176 0 0 0 0-21.082353h-34.635295v-24.094118h34.635295z m120.470588 75.294118h15.058823v75.38447A30.117647 30.117647 0 0 1 662.558118 534.588235h-301.116236a30.117647 30.117647 0 0 1-30.147764-30.027294V429.176471h15.058823c24.907294 0 45.176471-20.269176 45.176471-45.176471s-20.269176-45.176471-45.176471-45.176471H331.294118v-75.414588a30.117647 30.117647 0 0 1 30.147764-29.997176h301.116236A30.117647 30.117647 0 0 1 692.705882 263.408941V338.823529h-15.058823c-24.907294 0-45.176471 20.269176-45.176471 45.176471s20.269176 45.176471 45.176471 45.176471z"  horiz-adv-x="1024" />

    
    <glyph glyph-name="lianxikefu" unicode="&#59037;" d="M512 832a448 448 0 0 1-448-448 448 448 0 0 1 448-448 448 448 0 0 1 448 448 448 448 0 0 1-448 448z m-5.696-711.04a37.888 37.888 0 1 0 0 75.84 37.888 37.888 0 0 0 0-75.84z m162.56 368.896c-2.176-40.512-14.592-72.448-76.736-134.528-31.488-31.552-51.328-55.168-53.376-75.904a31.488 31.488 0 0 0-31.36-28.416l-3.072 0.192a31.552 31.552 0 0 0-28.288 34.432c4.288 43.712 36.288 78.912 71.552 114.176 56.448 56.448 57.408 74.432 58.368 93.44 1.152 22.08-6.976 43.52-23.04 60.416-18.304 19.2-44.224 30.272-71.04 30.272h-0.192a94.208 94.208 0 0 1-93.888-94.08 31.488 31.488 0 1 0-63.04 0c0 41.92 16.256 81.28 45.888 110.976a155.968 155.968 0 0 0 110.848 46.08 161.664 161.664 0 0 0 117.12-49.856c28.16-29.44 42.368-67.52 40.32-107.2z"  horiz-adv-x="1024" />

    
    <glyph glyph-name="gongzuotai" unicode="&#59038;" d="M192 736a32 32 0 0 1-32-32v-192a32 32 0 0 1 32-32h192a32 32 0 0 1 32 32V704a32 32 0 0 1-32 32H192z m0 64h192A96 96 0 0 0 480 704v-192A96 96 0 0 0 384 416H192A96 96 0 0 0 96 512V704A96 96 0 0 0 192 800z m0-512a32 32 0 0 1-32-32v-192a32 32 0 0 1 32-32h192a32 32 0 0 1 32 32v192a32 32 0 0 1-32 32H192z m0 64h192A96 96 0 0 0 480 256v-192A96 96 0 0 0 384-32H192A96 96 0 0 0 96 64v192A96 96 0 0 0 192 352z m448-64a32 32 0 0 1-32-32v-192a32 32 0 0 1 32-32h192a32 32 0 0 1 32 32v192a32 32 0 0 1-32 32h-192z m0 64h192a96 96 0 0 0 96-96v-192a96 96 0 0 0-96-96h-192A96 96 0 0 0 544 64v192A96 96 0 0 0 640 352z m-37.76 277.76a32 32 0 0 1 0-45.312l112-112a32 32 0 0 1 45.312 0l112 112a32 32 0 0 1 0 45.312l-112 112a32 32 0 0 1-45.248 0L602.24 629.76z m-45.248 45.248l112 112a96 96 0 0 0 135.808 0l112-112a96 96 0 0 0 0-135.808l-112-112a96 96 0 0 0-135.744 0l-112 112a96 96 0 0 0 0 135.808z"  horiz-adv-x="1024" />

    
    <glyph glyph-name="jichushezhi" unicode="&#59039;" d="M512 227.776l369.728 184.832a32 32 0 0 0 28.608-57.216l-384-192a32 32 0 0 0-28.608 0l-384 192a32 32 0 0 0 28.608 57.216L512 227.776z m0-192l369.728 184.832a32 32 0 0 0 28.608-57.216l-384-192a32 32 0 0 0-28.608 0l-384 192a32 32 0 0 0 28.608 57.216L512 35.776zM113.728 547.392a32 32 0 0 0 0 57.216l384 192a32 32 0 0 0 28.544 0l384-192a32 32 0 0 0 0-57.216l-384-192a32 32 0 0 0-28.608 0l-384 192zM512 419.776L824.448 576 512 732.224 199.552 576 512 419.776z"  horiz-adv-x="1024" />

    
    <glyph glyph-name="xitongshezhi" unicode="&#59040;" d="M482.88 784l-17.28-90.688-20.672-4.48a309.696 309.696 0 0 1-99.712-41.152l-18.752-11.776-73.216 55.04-44.672-44.672 51.904-76.416-11.392-17.728a310.016 310.016 0 0 1-41.6-99.584l-4.8-21.632-90.688-12.864v-63.104l90.688-17.344 4.48-20.608c7.808-35.456 21.696-69.184 41.152-99.84l11.776-18.688-55.04-73.28 44.672-44.608 76.416 51.904 17.728-11.392a310.016 310.016 0 0 1 99.584-41.6l21.632-4.8 12.864-90.688h63.104l17.344 90.688 20.608 4.48a310.016 310.016 0 0 1 99.84 41.152l18.688 11.776 73.28-55.04 44.608 44.672-51.904 76.416 11.392 17.728a310.016 310.016 0 0 1 41.6 99.648l4.8 21.568 90.688 12.928v63.104l-90.688 17.28-4.48 20.672a310.016 310.016 0 0 1-41.152 99.776l-11.776 18.688 55.04 73.28-44.672 44.608-76.416-51.84-17.728 11.328a310.144 310.144 0 0 1-99.648 41.6l-21.568 4.8-12.928 90.688h-63.104z m-72.32-37.824L429.952 848H601.6l14.656-102.592c28.032-8.064 54.848-19.328 80.128-33.6l85.76 58.304 121.344-121.344-62.272-82.88c14.08-25.408 25.152-52.352 32.96-80.384l101.952-19.456v-171.584l-102.656-14.656a373.952 373.952 0 0 0-33.536-80.128l58.24-85.76-121.344-121.344-82.88 62.272c-25.408-14.08-52.352-25.152-80.384-32.96l-19.392-101.888H422.528l-14.656 102.656a373.888 373.888 0 0 0-80.128 33.536l-85.824-58.304-121.344 121.344 62.272 82.88a373.824 373.824 0 0 0-32.96 80.448L48 301.952V473.536l102.592 14.656c8.064 27.904 19.328 54.784 33.6 80.128l-58.304 85.76 121.344 121.344 82.88-62.272c25.408 14.08 52.48 25.152 80.384 32.96h0.064zM512 192a192 192 0 1 0 0 384 192 192 0 0 0 0-384z m0 64a128 128 0 1 1 0 256 128 128 0 0 1 0-256z"  horiz-adv-x="1024" />

    
    <glyph glyph-name="baoxiaodanguanli" unicode="&#59041;" d="M960 768H64a32 32 0 0 1-32-32V320a32 32 0 0 1 32-32h896a32 32 0 0 1 32 32V736A32 32 0 0 1 960 768z m-32-416h-832V704h832v-352z m-32-103.296a32 32 0 0 1-32-32V64h-704v152.704a32 32 0 1 1-64 0V32a32 32 0 0 1 32-32h768a32 32 0 0 1 32 32v184.704a32 32 0 0 1-32 32z m-210.112 176.96a31.872 31.872 0 0 1 45.76 0l123.2 126.016a32 32 0 0 1-45.696 44.736l-100.416-102.656-100.352 102.656a32 32 0 0 1-45.76-44.8l123.264-125.952z"  horiz-adv-x="1024" />

    
    <glyph glyph-name="zhichufeiyongtongji" unicode="&#59042;" d="M896 416c-1.344 0-2.496-0.64-3.776-0.768-1.28 0.128-2.432 0.768-3.712 0.768H544V764.032c0 0.64-0.32 1.28-0.448 1.984 0.128 0.64 0.448 1.28 0.448 1.984a32 32 0 0 1-32 32A416.512 416.512 0 0 1 96 384c0-229.376 186.624-416 416-416s416 186.624 416 416a32 32 0 0 1-32 32z m-384-384A352.384 352.384 0 0 0 160 384a352.32 352.32 0 0 0 320 350.336V384a32 32 0 0 1 32-32h350.4A352.32 352.32 0 0 0 512 32zM625.664 717.248a355.328 355.328 0 0 0 216.832-211.84 32 32 0 1 1 60.032 22.08A414.208 414.208 0 0 1 646.4 777.856a32 32 0 1 1-20.672-60.544z"  horiz-adv-x="1024" />

    
    <glyph glyph-name="enter" unicode="&#59128;" d="M693.792 397.76l-320 297.664a32 32 0 0 1-43.584-46.848l295.36-274.752-295.84-286.848a31.968 31.968 0 1 1 44.544-45.92l320 310.272a31.968 31.968 0 0 1-0.48 46.4"  horiz-adv-x="1024" />

    
    <glyph glyph-name="file-text" unicode="&#59321;" d="M854.6 607.4L639.4 822.6c-6 6-14.1 9.4-22.6 9.4H192c-17.7 0-32-14.3-32-32v-832c0-17.7 14.3-32 32-32h640c17.7 0 32 14.3 32 32V584.7c0 8.5-3.4 16.7-9.4 22.7zM790.2 570H602V758.2L790.2 570z m1.8-562H232V760h302v-216c0-23.2 18.8-42 42-42h216v-494zM504 278H320c-4.4 0-8-3.6-8-8v-48c0-4.4 3.6-8 8-8h184c4.4 0 8 3.6 8 8v48c0 4.4-3.6 8-8 8zM312 406v-48c0-4.4 3.6-8 8-8h384c4.4 0 8 3.6 8 8v48c0 4.4-3.6 8-8 8H320c-4.4 0-8-3.6-8-8z"  horiz-adv-x="1024" />

    
    <glyph glyph-name="propertysafety" unicode="&#59328;" d="M866.9 726.1L527.1 841.9C523 843.3 517.5 844 512 844s-11-0.7-15.1-2.1L157.1 726.1c-8.3-2.8-15.1-12.4-15.1-21.2v-482.4c0-8.8 5.7-20.4 12.6-25.9L499.3-72c3.5-2.7 8-4.1 12.6-4.1s9.2 1.4 12.6 4.1l344.7 268.6c6.9 5.4 12.6 17 12.6 25.9V704.9c0.2 8.8-6.6 18.3-14.9 21.2zM810 241.7L512 9.5 214 241.7V669.3l298 101.6 298-101.6v-427.6zM430.5 578h-46c-1.7 0-3.3-0.4-4.8-1.2-4.8-2.6-6.6-8.7-4-13.6l88-161.1h-45.2c-5.5 0-10-4.5-10-10v-21.3c0-5.5 4.5-10 10-10h63.1v-29.7h-63.1c-5.5 0-10-4.5-10-10v-21.3c0-5.5 4.5-10 10-10h63.1V238c0-5.5 4.5-10 10-10h41.3c5.5 0 10 4.5 10 10v51.8h63.4c5.5 0 10 4.5 10 10v21.3c0 5.5-4.5 10-10 10h-63.4v29.7h63.4c5.5 0 10 4.5 10 10v21.3c0 5.5-4.5 10-10 10h-45.7l87.7 161.1c0.8 1.5 1.2 3.1 1.2 4.8 0 5.5-4.5 10-10 10h-45c-3.8 0-7.2-2.1-8.9-5.5l-73.2-144.3-72.9 144.3c-1.7 3.4-5.2 5.5-9 5.5z"  horiz-adv-x="1024" />

    
    <glyph glyph-name="xinzengbaoxiao" unicode="&#59034;" d="M555.895467 793.6v-365.704533H921.6v-87.790934H555.895467V-25.6h-87.790934V340.104533H102.4v87.790934h365.704533V793.6z"  horiz-adv-x="1024" />

    
    <glyph glyph-name="tongjitu1" unicode="&#59035;" d="M854.784 358.5536c32.1024 0 56.576-29.9008 49.0496-60.9792a401.3568 401.3568 0 0 0-597.504-248.9856 50.3296 50.3296 0 0 0-9.9328 78.7456l216.6784 216.5248a50.3808 50.3808 0 0 0 35.4304 14.6944h306.2784zM480.4608 732.8768v-306.2784a50.176 50.176 0 0 0-14.6944-35.4304l-216.576-216.6784a50.3296 50.3296 0 0 0-78.7456 10.0352A401.3056 401.3056 0 0 0 419.3792 781.8752c31.232 7.5264 61.0816-16.896 61.0816-48.9984z m127.488 49.152a401.664 401.664 0 0 0 295.936-295.936c7.4752-31.0784-17.1008-60.672-49.0496-60.672H597.504a50.1248 50.1248 0 0 0-50.176 50.176V732.8768c0 31.9488 29.696 56.5248 60.7232 49.152z"  horiz-adv-x="1024" />

    
    <glyph glyph-name="tongjitu2" unicode="&#59036;" d="M750.7456 484.3008L546.1504 363.52v-241.4592a34.816 34.816 0 0 0-34.1504-35.2768 34.816 34.816 0 0 0-34.1504 35.2768V363.52L273.2544 484.3008a36.0448 36.0448 0 0 0-12.8 48.128 33.7408 33.7408 0 0 0 46.592 13.2096L512 424.5504l204.9536 121.088a33.7408 33.7408 0 0 0 46.592-13.2608c9.216-16.896 3.584-38.4-12.8-48.128z m76.6464 136.6016l-273.0496 161.0752a82.8416 82.8416 0 0 1-84.6848 0L196.608 620.9024C169.984 605.184 153.6 575.9488 153.6 544.4096v-320.8192c0-31.5392 16.384-60.7744 43.008-76.4928l273.0496-161.0752c26.3168-15.5136 58.368-15.5136 84.6848 0l273.0496 161.0752c26.624 15.7184 43.008 44.9536 43.008 76.4928V544.4096c0 31.5392-16.384 60.7744-43.008 76.4928z"  horiz-adv-x="1024" />

    
    <glyph glyph-name="down" unicode="&#58893;" d="M791.24194732 189.53608734a33.2728 33.2728 0 0 1 25.9432721 12.37875857L1076.53324233 524.35544688a33.36401195 33.36401195 0 0 1-5.09483664 46.78519226 33.22719401 33.22719401 0 0 1-46.71352584-5.09483629L791.32012905 275.80951971 559.20537499 564.5994422599999a33.22719401 33.22719401 0 1 1-51.8083621-41.61217424l257.99938957-321.04636165a33.12295185 33.12295185 0 0 1 25.84554486-12.40481902z"  horiz-adv-x="1537" />

    
    <glyph glyph-name="caredown" unicode="&#58906;" d="M1095.39331657 583.74246711H534.01643556c-25.49294142 0-38.96091068-30.13918598-22.01337524-49.12329174l279.95159125-339.73873069a29.53537905 29.53537905 0 0 1 44.00628195 0L1117.33505374 534.56800544c17.0191735 19.02504163 3.46933252 49.17446169-21.94173717 49.17446167z"  horiz-adv-x="1609" />

    
    <glyph glyph-name="danju" unicode="&#59032;" d="M512 793.6c226.2016 0 409.6-183.3984 409.6-409.6s-183.3984-409.6-409.6-409.6S102.4 157.7984 102.4 384 285.7984 793.6 512 793.6z m134.519467-230.4h-269.038934a29.866667 29.866667 0 0 1-29.764266-29.9008v-298.5984c0-16.452267 13.312-29.832533 29.764266-29.9008h269.038934a29.866667 29.866667 0 0 1 29.764266 29.9008v298.5984a29.866667 29.866667 0 0 1-29.764266 29.9008z m-74.786134-209.066667a14.9504 14.9504 0 0 0 0-29.866666h-119.466666a14.916267 14.916267 0 1 0 0 29.866666h119.466666z m0 74.683734a14.9504 14.9504 0 0 0 0-29.866667h-119.466666a14.916267 14.916267 0 1 0 0 29.866667h119.466666z"  horiz-adv-x="1024" />

    
    <glyph glyph-name="chakanquanbujiantou" unicode="&#59033;" d="M629.824 345.024l-160-149.76a31.872 31.872 0 0 0-53.76 24.448 31.936 31.936 0 0 0 10.112 22.272L560.64 367.872l-134.016 120.32a32 32 0 1 0 42.752 47.616l160-143.616a31.936 31.936 0 0 0 0.448-47.168M512 768C300.288 768 128 595.712 128 384s172.288-384 384-384 384 172.288 384 384-172.288 384-384 384"  horiz-adv-x="1024" />

    
    <glyph glyph-name="feiyongtongji" unicode="&#59024;" d="M224 91.093333V667.349333l576 0.298667 0.256-576.298667-576.256-0.213333zM800.256 731.349333H223.744c-35.157333 0-63.701333-28.501333-63.744-63.701333v-576.554667c0-35.114667 28.586667-63.744 63.744-63.744h576.512a63.829333 63.829333 0 0 1 63.744 63.744V667.648a63.786667 63.786667 0 0 1-63.744 63.701333z m-81.792-282.794666l-116.778667-116.778667-102.186666 102.229333a32 32 0 0 1-45.184 0.128l-156.8-155.221333a32 32 0 0 1 45.013333-45.525333l134.229333 132.821333 102.314667-102.314667a32.981333 32.981333 0 0 1 45.226667 0l139.434666 139.392a32 32 0 1 1-45.269333 45.226667"  horiz-adv-x="1024" />

    
    <glyph glyph-name="wode-fill" unicode="&#59025;" d="M644.821333 314.453333l160.64-187.477333a64 64 0 0 0-48.64-105.642667H267.136a64 64 0 0 0-48.597333 105.642667l160.682666 187.434667c40.021333-24.32 85.973333-37.12 132.778667-37.077334 48.64 0 94.08 13.568 132.821333 37.12zM512 746.666667a213.333333 213.333333 0 1 0 0-426.666667 213.333333 213.333333 0 0 0 0 426.666667z"  horiz-adv-x="1024" />

    
    <glyph glyph-name="wode" unicode="&#59026;" d="M644.821333 309.76l160.64-187.434667a64 64 0 0 0-48.64-105.642666H267.178667a64 64 0 0 0-48.597334 105.642666l160.682667 187.434667c19.114667-11.648 39.68-20.693333 61.226667-26.922667L267.093333 80.64H756.906667l-173.312 202.154667c21.546667 6.229333 42.112 15.317333 61.269333 26.965333zM512 742.058667a213.333333 213.333333 0 1 0 0-426.666667 213.333333 213.333333 0 0 0 0 426.666667z m0-64a149.333333 149.333333 0 1 1 0-298.666667 149.333333 149.333333 0 0 1 0 298.666667z"  horiz-adv-x="1024" />

    
    <glyph glyph-name="home-fill" unicode="&#59027;" d="M556.586667 736.64l288.469333-183.893333A64 64 0 0 0 874.666667 498.773333v-392.746666a64 64 0 0 0-64-64h-224V298.666667H448v-256.64l-213.333333-0.042667a64 64 0 0 0-64 64V504.32a64 64 0 0 0 30.293333 54.4l287.488 178.346667a64 64 0 0 0 68.181333-0.426667h-0.042666z"  horiz-adv-x="1024" />

    
    <glyph glyph-name="home" unicode="&#59028;" d="M556.586667 728.533333l288.469333-187.904c18.474667-12.032 29.610667-32.810667 29.610667-55.168v-401.28c0-36.096-28.672-65.365333-64-65.365333h-255.232l0.042666 201.258667H490.666667v-201.258667h-256c-35.328 0-64 29.269333-64 65.365333V491.136c0 22.613333 11.434667 43.648 30.293333 55.594667l287.488 182.186666c20.906667 13.269333 47.402667 13.098667 68.181333-0.426666l-0.042666 0.042666zM810.666667 84.181333V485.504l-288.469334 187.904L234.666667 491.178667v-407.04H426.666667v201.344h192.810666v-201.301334H810.666667z"  horiz-adv-x="1024" />

    
    <glyph glyph-name="shenpijilu-fill" unicode="&#59029;" d="M688 352a48 48 0 1 0 0 96 48 48 0 0 0 0-96m-176 0a48 48 0 1 0 0 96 48 48 0 0 0 0-96m-176 0a48 48 0 1 0-2.517333 96 48 48 0 0 0 2.517333-96m469.333333 352H218.666667c-32.341333 0-58.666667-27.477333-58.666667-61.269333v-471.381334c0-33.792 26.410667-61.226667 58.794667-61.226666h189.354666c5.888 0 15.658667-5.717333 18.346667-10.752l38.058667-71.978667 2.901333-4.565333c11.136-14.506667 27.349333-22.784 44.501333-22.826667 17.152 0 33.365333 8.32 44.586667 22.826667l40.96 76.544c2.474667 4.565333 11.946667 10.752 18.346667 10.752h189.525333c32.341333 0 58.624 27.434667 58.624 61.226666V642.773333c0 33.706667-26.325333 61.226667-58.666667 61.226667"  horiz-adv-x="1024" />

    
    <glyph glyph-name="shenpijilu" unicode="&#59030;" d="M800 187.349333v-17.877333h-184.149333c-29.653333 0-61.141333-18.858667-74.88-44.8L512 69.888l-28.970667 54.741333c-13.738667 25.941333-45.226667 44.8-74.88 44.8H224V635.392h576v-448z m5.333333 512H218.666667c-32.341333 0-58.666667-27.477333-58.666667-61.226666v-471.381334c0-33.792 26.410667-61.269333 58.794667-61.269333h189.354666c5.888 0 15.701333-5.717333 18.346667-10.752l38.058667-71.978667 2.901333-4.522666c11.178667-14.506667 27.392-22.869333 44.544-22.869334s33.365333 8.32 44.544 22.869334l40.96 76.501333c2.474667 4.608 11.946667 10.752 18.346667 10.752h189.482666c32.384 0 58.666667 27.477333 58.666667 61.269333V638.122667c0 33.749333-26.325333 61.226667-58.666667 61.226666z m-469.333333-256c-12.373333 0-23.466667-4.778667-32-12.416a47.658667 47.658667 0 0 1-16-35.584c0-14.165333 6.229333-26.752 16-35.541333 8.746667-7.978667 20.138667-12.416 32-12.458667a48 48 0 0 1 0 96m352 0a48 48 0 0 1 0-96c12.373333 0 23.466667 4.821333 32 12.458667 9.770667 8.789333 16 21.376 16 35.541333 0 13.610667-5.845333 26.538667-16 35.584a47.658667 47.658667 0 0 1-32 12.416m-176 0c-12.373333 0-23.466667-4.778667-32-12.416a47.658667 47.658667 0 0 1-16-35.584c0-14.165333 6.229333-26.752 16-35.541333 8.746667-7.978667 20.138667-12.416 32-12.458667 12.373333 0 23.466667 4.821333 32 12.458667 9.770667 8.789333 16 21.376 16 35.541333 0 13.610667-5.845333 26.538667-16 35.584a47.658667 47.658667 0 0 1-32 12.416"  horiz-adv-x="1024" />

    
    <glyph glyph-name="feiyongtongji-fill" unicode="&#59031;" d="M763.733333 407.936l-139.434666-139.434667a31.914667 31.914667 0 0 0-45.226667 0l-102.4 102.357334-134.186667-132.864a31.957333 31.957333 0 0 0-45.226666 0.256 32 32 0 0 0 0.213333 45.226666l156.842667 155.306667a32 32 0 0 0 45.141333-0.170667l102.229333-102.229333 116.778667 116.778667a32 32 0 1 0 45.226667-45.226667m36.565333 328.064H223.744c-35.2 0-63.701333-28.586667-63.744-63.744v-576.512c0-35.157333 28.586667-63.744 63.744-63.744h576.512c35.2 0 63.701333 28.586667 63.744 63.744V672.256a63.829333 63.829333 0 0 1-63.744 63.744"  horiz-adv-x="1024" />

    


  </font>
</defs>
</svg>
